/* XPM */
static char *_336e7d65f124ad4995211e26a49eaeaUMo4xz16cyRHNO3V[] = {
/* columns rows colors chars-per-pixel */
"50 50 146 2 ",
"   c #34332F",
".  c #363531",
"X  c #383733",
"o  c #3B3A36",
"O  c #3E3D39",
"+  c #403F3A",
"@  c #43423D",
"#  c #474640",
"$  c #484742",
"%  c #4C4A45",
"&  c #4F4E48",
"*  c #514E49",
"=  c #54524C",
"-  c #58554F",
";  c #575650",
":  c #585550",
">  c #585650",
",  c #595650",
"<  c #585750",
"1  c #595750",
"2  c #595651",
"3  c #595751",
"4  c #5A5750",
"5  c #5A5751",
"6  c #595650",
"7  c #5A5851",
"8  c #5B5851",
"9  c #5A5951",
"0  c #5A5852",
"q  c #5B5852",
"w  c #5A5853",
"e  c #5B5853",
"r  c #5A5953",
"t  c #5B5953",
"y  c #5C5852",
"u  c #5C5952",
"i  c #5C5953",
"p  c #5C5A53",
"a  c #5D5A53",
"s  c #5C5B53",
"d  c #5E5B53",
"f  c #5B5954",
"g  c #5C5A54",
"h  c #5D5A54",
"j  c #5D5B54",
"k  c #5E5B54",
"l  c #5E5B55",
"z  c #5E5C54",
"x  c #5F5C54",
"c  c #5E5C55",
"v  c #5F5C55",
"b  c #5E5D55",
"n  c #5F5D55",
"m  c #5E5C56",
"M  c #5F5C56",
"N  c #5E5C55",
"B  c #605B55",
"V  c #605C54",
"C  c #605C55",
"Z  c #605C56",
"A  c #605D56",
"S  c #605D57",
"D  c #605E56",
"F  c #615E56",
"G  c #615E57",
"H  c #625F57",
"J  c #615D56",
"K  c #605E58",
"L  c #605F58",
"P  c #625F58",
"I  c #625F59",
"U  c #625F58",
"Y  c #626058",
"T  c #626059",
"R  c #636059",
"E  c #626159",
"W  c #63605A",
"Q  c #63625B",
"!  c #646159",
"~  c #64615A",
"^  c #64605B",
"/  c #64635A",
"(  c #64625B",
")  c #65625B",
"_  c #64615C",
"`  c #65625C",
"'  c #65635C",
"]  c #66635C",
"[  c #66635D",
"{  c #67645C",
"}  c #66655C",
"|  c #67645D",
" . c #66645E",
".. c #67645E",
"X. c #66655E",
"o. c #65625B",
"O. c #68655D",
"+. c #68655E",
"@. c #69665E",
"#. c #68665F",
"$. c #69665F",
"%. c #6A675F",
"&. c #69665E",
"*. c #696660",
"=. c #696760",
"-. c #6A6760",
";. c #6B6761",
":. c #6A6760",
">. c #6A6860",
",. c #6B6860",
"<. c #6B6960",
"1. c #6B6861",
"2. c #6B6862",
"3. c #6B6962",
"4. c #6C6961",
"5. c #6C6962",
"6. c #6C6A63",
"7. c #6D6A63",
"8. c #6E6B63",
"9. c #6C6A64",
"0. c #6E6A64",
"q. c #6E6B65",
"w. c #6D6D65",
"e. c #6F6C64",
"r. c #6F6C65",
"t. c #6F6D65",
"y. c #6D6A63",
"u. c #706D65",
"i. c #706D67",
"p. c #716E66",
"a. c #716E67",
"s. c #716F67",
"d. c #726F67",
"f. c #716E66",
"g. c #716E68",
"h. c #726F68",
"j. c #726F68",
"k. c #727067",
"l. c #727169",
"z. c #74716A",
"x. c #75726A",
"c. c #75736C",
"v. c #76736C",
"b. c #75726B",
"n. c #79766E",
"m. c #7A776F",
/* pixels */
": $ l A l 8.%   % Z l A ! = Z n l n l A $ p p V V l o n n n O.-   @ l A Z 8.% A A n n l n * = A A V ",
": % n A A ! Y   @ A p = ! = 0 n n l A = X * A A l A o A Z l A O.  O Z p * P 9 : A A l n : O $ l A l ",
"= A p n l n ' O   % % O A @ = n A p = O $ @ - Z A - Y p l A A ! #   # %   n $ % n A p - @ # @ = l A ",
"l.;.- : A n : X   . . 0 = O o % %.% . + 8.i.A * % r.O.0 : l n 0 O   . X = - @ . % Y - X o ! u. .* % ",
"A A @ # - = @ n @ X ! O.r.;.@ $ 8.@ o ' Z Z %.d.$ - d $ @ - - @ p %   0 ;.0.8.*   r.&   l P l { k.A ",
": = @ + O o & ! = % ,.n l P 8.: A @ o - A l A p O = 0 @ @ O O @ O.0 + 8.n l P O.0 n $   * Z A l n $ ",
"@ : 8.,.= X * l * % A l n l l 8.= o o 0 p Z l p + O = ,.,.: O $ A - @ l n l l A x.= O   = Z l A p % ",
"  % A A ,.l @ : @ $ l A l n A * X   o l A A A p O   O A Y O.} @ 0 $ @ A l A A l A o     : Z A l A % ",
"+ $ Z l l P @ @ O # p l n l : @ $ . o l l A l * X @ X V l A A % + o # = l A A p $ @ X   = A n l = X ",
"! $ l A n p * o @ * * l n : @  .0.! X # p Z % @ c.0.O Z A p Z = O O : # p l p $ p i.8.O + 0 l = @ i.",
"% $ n l l $ : l o @ X $ & + f ' A ! i.* % % X @ A = o Z A A & * ' X # . $ & @ % O.A A i.p # % X O n ",
"X : l A = % ! : 0 P   . O   : n l A A 8.m.*   @ = X = p A : @ P l * 0.    O . * n n Z l O.n.l   O = ",
"* p l l * @ - Y O.Y l o i.@ = l A l A l A A X i.h.* n l n A @ - l r.n '   0.* % l l A l l A ! . A i.",
"%.! = = # X Q ,.n n c.. : @ O : l A l A 0 % O p n ' 8.= = %   - 0.A n 8.+ : $ . = l p A A p * . A A ",
"A O.8.X . $ O.n n A P   @ @ ! ;.- A p } : . o A n n ! c.. . O O.n l n n o O @ 0 8.0 V A Y Y X   n n ",
"V l ! O   # l n n l l .   ' ! ' 8.% %.{ O.h.+ * A l n ! # . + p l n n n o   p  .Y ;.= Y %.! i.$ $ A ",
"l l l o . @ p l V p p    .H p V u.% - p i.V = O n n p n O   O 0 Z Z p p X p ! A V O.: * p u.p 0 o l ",
"= = n p   + y y - * O + 8.A A A A @ 4 i.A l % X @ = = p Z X o : p = = @   d.A A A Z % * u.H A = . @ ",
"! = ! O.;.l @ # X X   o A A p A A @ % 8.A V l + O ;.+ O.' 8.' @ $ O X     A A p p Z % + %.A Z p % X ",
": $ Z l Z P + X $ @   O p Z n n A @ @ V A A p % ! ! O p Z l P %   % @     A Z V V Z % + - p Z A * % ",
": $ n n n n @ - 8.0.+ o n n n A - O - A n l p % w P o n l A A $ % 0.i.$   n n n A y + * A n Z p * $ ",
": % l n A A @ = n A i.o n d l - @   % A l A 4 + * n o n A p A $ * l A u.o l n n p @ . @ p l Z p $ @ ",
"+   = l 0 % X - n n  .p $ 9 - % O O @ p p - @ % ;.$   % p l = o * Z n P  .@ : - = + O + - p - $ O x.",
"$   * ' l O   - l A d p   = i.i.k.k.x.Y @ O   % ' *   $ ! n @   * n l n Y . % 8.x.k.k.k.8.@ O   % P ",
"A X x.O.i.*   * A l n -   - A n A l A k.X   8.A n ' . 0.O.O.p   $ A n l n   % ! l n n l ,.*   ! ! l ",
"- % A V A %.# o * n l A 0 * Z n p n n A % - P n Z A O A n n | = . % l A A P $ l A n l n A = * ! l A ",
": $ A V n  .p   @ A p - 8.p p n A A d : X = d n Z n o Z l A P '   O Z n = O.Y l l A n n p + $ A A A ",
"- - Z Z n A ! O . = % O l @ - d A p = @ + @ 0 l l - - l A l Z ' @ . $ * o l $ * A l n : # + O : p A ",
"8.r.= p l A 0 o   X o & - O O = O.* o O i.8.: = =  .r.: - V l p +   . O # : @ o * Y - O X ! 0.n = = ",
"Y d $ $ p : @ = +   : 8.h.Y X % x.@ X  .A H 8.x.% p A % $ p p @ & #   $ 0.h.' + . x.*   l ! A 8.i.A ",
"p - O O @ O % O.= $ 8.A n ' ;.* V @ O - A p d p @ = p + O @ @ @ 8.: O l.n n ! 0.* Z $   = A n n p % ",
"$ = ' Y $ . * A * % A l n l P 8.= + X - l n A 0 O @ = Y ! % X $ l - # A l n n A x.= @   * A l n d % ",
"  * P ! 0.- # l # % l n l A l - O   o A l A A Z @   + I A 8.P $ l % @ n l A l l ! O .   = n l n A * ",
"X $ A A n P @ @ o @ f l n l : @ O   X l n l A =   O O Z A l ! $ @ O + : A l A l % o . . : l l P : X ",
"l % l n n l $   $ = = l A l $ - i.=   % l l = @ ' ;.X l l n A %   O l # l n l & * 0.n   # p l : + P ",
"& $ A l l & Y 0 O # o & = @ 0  .l O.O.$ * = o @ A - o Z n A = 0 ' o % . % = % # ;.l Y 0.% % = O O P ",
"X = l A = $ P : = f   . X   : n A p A 8.x.$   O * O % A A - @ A P # O.  . X . = A l A A ;.x.= . X * ",
"@ Z l n * $ - P ;.P = o x.@ : l l A A A ! A   i.x.$ l n A l @ : 0 r.A l   r.% & p A l A n A '   l c.",
"i.p = = $ X d 8.A n l.o l + @ : A l l A p * O A n ,.O.= = =   = 0.P l 0.O 0 $ o - A n l l l = X ! n ",
"Z 8.;.O X @ r.n n l P   # O = n 0 l n Y : X o A n l O.l.O X X 8.n n Z A O @ @ @ A - l n n A X   l n ",
"A l  .o . % n l l A l   . l O.;.O.* i.%.! i.. 0 n l n O.@ . @ A A l d A o   = 8.O. .= ;.i.A i.+ * l ",
"l n l o   @ : n A l p   l ' l n i.* - - x.A = + l n n n O   + : p n A p o =  .V n 8.: * - u.V : o l ",
"= - : &   @ p n - = @ O i.A n l A @ - 8.A n * X & = = : = . O : V - - $   i.A A n A * * 8.! A - . $ ",
"Q = 8.0.! - $ % O o   O A A p A p @ = u.d A : o . ' @ ,.8. .l $ % + O     A A p l n $ @ 8.A A : # . ",
"p % A n ! ! + X @ o   o V l A p V @ @ A l Z l % l ' O l A P O.$ X + O     l l A V V $ O 9 d A n = # ",
": $ A l l n @ % i. .X o V n A A p + p l A A p $ l P o l l n l $ @ l.8.+ . n n l p p @ = p A A l & # ",
": $ l A n l @ - n A r.X d A V 9 @   * V l A p @ * Z o l n n A $ * n l 0.o n d V p % X $ p Z p V % @ ",
"$ . - l l = o - n n %.= * d 9 @     o A A : $ $ P % . * n n - O * A A ! n $ p 9 *       - A p % O ,.",
"O   $ A : O   - n l n ! X % Y n.n.n.l.f $ @ . $ r.$   @ n f @   * Z l A O.. % n x.c.n.n.Y # @ . @ ,.",
"O.  n.i.v.$   = n n l - . n ! l n f n r.    n A n r.  ,.i.l.=   % l A l A   = O.A n l l 0.$   = ;.n "
};
