/* XPM */
static char *_6e3a1b12d404ab9e71de06c49abff9euDmiZr9SmS9u46ek[] = {
/* columns rows colors chars-per-pixel */
"50 50 179 2 ",
"   c #362F17",
".  c #342F1D",
"X  c #35341D",
"o  c #3C351D",
"O  c #3D3D1E",
"+  c #272723",
"@  c #2A2926",
"#  c #2E2D29",
"$  c #332F21",
"%  c #343022",
"&  c #3F3D26",
"*  c #34332F",
"=  c #3B3628",
"-  c #363531",
";  c #383733",
":  c #3B3A35",
">  c #3E3D38",
",  c #463D1F",
"<  c #423D2C",
"1  c #403F3A",
"2  c #50441E",
"3  c #504E1F",
"4  c #5B4D1E",
"5  c #414021",
"6  c #4C4B25",
"7  c #42402E",
"8  c #5A4D27",
"9  c #544B2C",
"0  c #555324",
"q  c #5E5121",
"w  c #5D5C25",
"e  c #5E512B",
"r  c #5C5B29",
"t  c #454431",
"y  c #4B4A32",
"u  c #43423D",
"i  c #605122",
"p  c #626225",
"a  c #474540",
"s  c #484742",
"d  c #4C4A45",
"f  c #4F4E48",
"g  c #514E49",
"h  c #54524C",
"j  c #58554F",
"k  c #575650",
"l  c #595751",
"z  c #595650",
"x  c #5A5751",
"c  c #5A5750",
"v  c #585550",
"b  c #595650",
"n  c #5A5851",
"m  c #5A5852",
"M  c #5B5852",
"N  c #5B5953",
"B  c #5C5953",
"V  c #5C5A53",
"C  c #5D5A53",
"Z  c #5E5B53",
"A  c #5B5954",
"S  c #5C5A54",
"D  c #5D5B54",
"F  c #5D5A54",
"G  c #5E5B55",
"H  c #5E5B54",
"J  c #5F5C54",
"K  c #5E5C55",
"L  c #5F5C55",
"P  c #5E5D55",
"I  c #5F5C56",
"U  c #5E5C56",
"Y  c #5E5C55",
"T  c #605B55",
"R  c #605C55",
"E  c #605C54",
"W  c #605D56",
"Q  c #605C56",
"!  c #615E56",
"~  c #615E57",
"^  c #625F57",
"/  c #615D56",
"(  c #605E58",
")  c #625F58",
"_  c #625F59",
"`  c #625F58",
"'  c #626059",
"]  c #63605A",
"[  c #63625B",
"{  c #64615A",
"}  c #64605B",
"|  c #65625B",
" . c #64635B",
".. c #64615C",
"X. c #65625C",
"o. c #65635C",
"O. c #66635C",
"+. c #67645D",
"@. c #66645E",
"#. c #65625B",
"$. c #68655E",
"%. c #69665F",
"&. c #6A675F",
"*. c #68655D",
"=. c #69665E",
"-. c #696760",
";. c #6A6760",
":. c #6B6761",
">. c #6A6760",
",. c #6B6860",
"<. c #6B6962",
"1. c #6C6962",
"2. c #6D6A63",
"3. c #6E6B63",
"4. c #6C6961",
"5. c #6C6A64",
"6. c #6E6B65",
"7. c #6F6C65",
"8. c #6D6D65",
"9. c #6D6A63",
"0. c #716E67",
"q. c #726F67",
"w. c #706D66",
"e. c #716E66",
"r. c #716E68",
"t. c #726F68",
"y. c #726F68",
"u. c #727067",
"i. c #727169",
"p. c #74716A",
"a. c #75726A",
"s. c #76736C",
"d. c #75726B",
"f. c #79766E",
"g. c #7A776F",
"h. c #B19434",
"j. c #B39C35",
"k. c #B89B38",
"l. c #BFA038",
"z. c #B3B335",
"x. c #B8B737",
"c. c #B8B438",
"v. c #BFBF38",
"b. c #DAA605",
"n. c #DDA70B",
"m. c #DDAB0B",
"M. c #DEB10E",
"N. c #E0AD11",
"B. c #E0B511",
"V. c #E3B319",
"C. c #E2BD18",
"Z. c #E9B925",
"A. c #EBBD2B",
"S. c #E4C11B",
"D. c #E9CD25",
"F. c #EBC12B",
"G. c #EBD32B",
"H. c #F0C537",
"J. c #F2C73B",
"K. c #F3C93E",
"L. c #F0E035",
"P. c #F2E53B",
"I. c #F3EB3E",
"U. c #DCB840",
"Y. c #DCDC40",
"T. c #EAC444",
"R. c #F6CD43",
"E. c #F7D047",
"W. c #F5D841",
"Q. c #F8D048",
"!. c #F8D948",
"~. c #EAE944",
"^. c #F6E443",
"/. c #F5ED42",
"(. c #F8E648",
"). c #F8EB48",
"_. c #F7F346",
"`. c #F8F248",
"'. c #F8F848",
/* pixels */
"v s L L L 3.d * d L L L | h L L L L L L s V L L W L : L L L %.j * s I L L ,.f L L L L L L f h W L L ",
"v d L W L | ' * u L n h | h n L L L L j * g L L L L : L W L L %.* : I n f | j j L L L L v > s I L L ",
"h W V L L L o.: * f d : L u h P L S g > d u v L L j ' V L L L | a * s f - L s f n L S h u s u h L L ",
"i.:.j v L L v : * - ; S h : : f 4.d - 1 ,.u.( f f 7.o.n j L L n > * - - h j u - f  .j : : ' 7.-.f f ",
"L L u s j h u L u ;  .o.7.:.u d 7.u : o.L L :.r.s j L s u j j u S d * n :.7.,.f * 7.f * I L L o.0.I ",
"n h u > > : f  .h d ,.L L W :.v L u : v L L L S > h n u u > 1 u o.S > 7.L L ' ,.n L d * g L L L V d ",
"u v 3.,.h ; g L g d L L L L I :.h : : n L L L S 1 : g ,.,.n : s L v s L L L L L d.g 1 * h L L L V f ",
"* f W W :.V u n u s L L L L I h ; * : L L L L L 1 * > ' L &.o.u n s > L L L L L L : - * v L L L L d ",
": s I I I W u u > u V W L L v u s - : n L L I g ; u : L L L ) d u : s h L L L S s u ; * h L I I h ; ",
"| s I I I I f ; s f f I L v u o.6.o.; s I I d u s.7.: V L L I h : > v u I L n s I 7.3.> u n V h 1 0.",
"d s I V V s n n : u ; d f u S [ I | 0.g d d - u L h : I L L f g o.; s - s f s d o.L ) 0.v s d ; : L ",
"* j L W h d | v n ) * * : - v L I I L 3.g.f - u h : h V L v u ) S h ,.* * : - f L L V I %.f.I * > j ",
"h V V W f u j ' %.' S : r.a h L I L L L ' P - 0.u.h L L L L u j S 7.L -.* 5.f d L L L L L W | - ' 0.",
"&.' h h s ; | ,.L L a.; v 1 > j V L L L z d : L L o.,.h h f * j 7.L L ,.> j d - h I L L L n f - L L ",
"W *.3.; * s %.L L L W * u u ' ,.j P V o.d # X O O O O y # # > o.L L L L : > > I 3.n V L ' ' - * L I ",
"E W | : - s V L L L L - * o.| o.3.f &.u r p x.Y.Y.Y.Y.c.q 3 @ I L L L L : - I o.' ,.h ' ,.) 0.d d I ",
"V I V : - u S L L W V * o.' L E 3.u 7 z.~.'.I.I.I.I.I.P.(.~.j.< j E E V : V +.W E %.v g z 0.E n ; I ",
"h h W M * u v n h g > 1 7.L L V j 6 v.'.'.G.D.D.D.D.D.D.G.!.Q.l.9 h h 1 * 0.V I E T d g 0.W P h - u ",
"o.h  .%.,.I u s : ; * : W W P P t v.'.'.D.G.I.'.'.'.'.I.A.Z.Q.Q.k.% ; * * W W P V I s u %.W W V d ; ",
"j s V I I ) 1 - d 1 * : L L L : z.'.'.M._.'.'.'.L.S.).!.`.^.n.Q.Q.h.# * * W T L E T d 1 j W T V h d ",
"v s L L L L u j 3.6.> : L L h w ~._.D.I.'.'.P.B.b.b.N.P.`.!.K.Z.R.T.e 1 * L L L W V 1 g W W E W f u ",
"v d L L L L 1 j L W 0.: L L d p '.G.G.'.'.D.m.C.C.V.C.m.Z.E.E.A.A.E.i V : L L L V u * u V I W V s u ",
"1 * h I n f ; j L L o.I s z & x.I.D._.'.P.m.G./.!.`.`.F.N.R.E.R.Z.R.k.< o.u j j h 1 1 u j v v s > i.",
"s * f | I > * j L L L n * h 5 Y.I.D.'.'.B.S./.!.).`.!.Q.R.E.E.E.Z.K.U.o ' - d 3.u.u.u.0.3.u 1 * d | ",
"W ; s.%.w.f * f V I I j * j O Y.I.D.'.'.M.C.!.).'.!.Q.Q.Q.Q.Q.Q.Z.K.U., I * d ) L L L L &.f * | | L ",
"j d W V W &.u : h L V W n g O Y.I.D.'.'.M.V.`._.!.E.Q.Q.Q.Q.Q.Q.Z.K.U.o I ) s I L L L L W h f | E P ",
"v d E I E *.W * u V L h 3.V O Y.I.D.'.(.N.C.`.!.Q.Q.Q.Q.R.Q.Q.Q.Z.K.U.o g %.' I L L L L V 1 d V L L ",
"j j I E L W | > - h f > I u & c.W.D.I.!.P.m.A.Q.Q.Q.E.A.N.R.Q.K.Z.K.k.= ; T d f L L L n u u > j L L ",
",.3.j n L W n : * - : f j > * q (.G.A.`.).Z.n.V.V.V.N.n.Z.R.Q.A.A.Q.4 * d v u : h ' j : ; ) 6.L h h ",
"' P s d V v u h > * n 3.r.) * 0 ~.!.Z.I.Q.Q.K.N.b.b.N.J.Q.Q.K.Z.E.T.2 1 3.r.o.> - i.h * I | W 3.u.W ",
"I j > : u > d %.h s 3.L L o.:.* j.Q.Q.n.R.Q.Q.Q.V.A.Q.Q.Q.K.n.Q.Q.h.+ i.P V | 3.f I s * h V L L V d ",
"s h | ' s - g L g f L L L L ) 7.< l.Q.Q.Z.A.Q.Q.Q.Q.Q.R.A.Z.Q.Q.l.< u ' L L L W a.h u * h L L L V d ",
"* g ) ' 7.j s I s s L L L L L j : , l.R.R.A.Z.Z.Z.Z.Z.A.A.Q.Q.l.9 s u W L L L I ' : - * j I I I L g ",
"; s L L L W u u : u S L L L v u > # $ h.T.Q.R.K.J.J.J.R.Q.T.h.= 1 : 1 j L L W I d : - * h I L L v ; ",
"S s L L I S s - s h h L L I s v 0.h * * 8 i k.U.U.U.U.k.i 8 > f * > I u L L I f g 6.I * s S L v u ) ",
"g d L L I f ' v > a : d h u S o.W o. .s s u . X o o   < d g h n o.: d ; d h s s 3.I ) 6.d d h > > L ",
"- h I I h s ' n h S * - ; - v I L L W 3.a.d - : f : d W E j u L ) a %.* * ; - g L L L W ,.i.j * : f ",
"s W I L f s v ' ,.' h : i.u h I L L W L _ W * 0.s.s E V L T u n v 7.' V * 7.f f L L L L L W o.* L s.",
"0.V h j d ; L ,.L L i.: S u u v W L W W M g : ) W :.%.h j j * h 0.W W 6.> n s : v L L L L S h - ' L ",
"I 3.%.: * u 7.L L L U * s > h L v I I ' v ; : I E T %.i.: - ; ,.I I T W > u u u L n L L L ) - - L L ",
"L L -.: - d L L L L I * * I %.:.%.f w.&.| 0.- V L L L o.u - u L L L L L : * h 3.o.-.h %.7.W 0.> g L ",
"L L S : * u n L L L I - n o.L L 0.f j j u.P h 1 L L L L > - > j L L L V : j o.L L ,.v g n 7.W v ; I ",
"h h n f * u n L v h a > 7.L L L W u j 3.W T g ; f h h v h - > n P j j s * 0.W L L ) f h ,.| L j - s ",
"[ h ,.6.' j s d > : * : L L L L V u h w.W W v : - [ a ,.5.o.n s f > : * * ' L L L L s u 3.L L v s * ",
"S d L L ' ' 1 ; 1 : * : L L L L E u u W I I I d I o.: W P ' o.s - 1 : * * L L L E V d : n L L L h s ",
"v d L L L L u f u.o.; : L L L L V 1 V T I I n s S ) : L L L L d u i.3.u * L L L P V u h L L L L f s ",
"v d L L L L u j L ' 7.: L L L n u * g W I V n a g ) : L L L L d g L I 6.; P W E V d * d I L L L d u ",
"s - j L S h : j L L &.h f P n u * * : V I V s s ) d - g L L j > g L L | P d V z f * * * j L n f > ,.",
": - d L v > * j L L L ' : d ' s.s.s.i.S s u - s 7.s * u L n u * g I W L &.- d L a.s.s.s.[ d u - u ,.",
"o.* s.r.d.s * h L L L j - L  .S L L ( 0.* * P ' P 3.* ,.i.i.h * d I V I W * h %.W V L L ,.s * h ,.L "
};
