/* XPM */
static char *_87e0a2aa6bd43aae69b5671918d9288GQDfiOBMYuU6LCX0[] = {
/* columns rows colors chars-per-pixel */
"50 50 195 2 ",
"   c #1F0B01",
".  c #270700",
"X  c #250D01",
"o  c #2A0D00",
"O  c #261204",
"+  c #2C1202",
"@  c #2F1906",
"#  c #241109",
"$  c #2B1709",
"%  c #2C1809",
"&  c #331603",
"*  c #341904",
"=  c #3C1D02",
"-  c #321608",
";  c #351B0B",
":  c #3C1D0A",
">  c #301F17",
",  c #3E2004",
"<  c #3D220B",
"1  c #342214",
"2  c #3C2413",
"3  c #3E2913",
"4  c #36231D",
"5  c #3A2619",
"6  c #35291D",
"7  c #3D291A",
"8  c #3D2B23",
"9  c #3F3124",
"0  c #3F3029",
"q  c #431E02",
"w  c #4A1F02",
"e  c #431E08",
"r  c #442104",
"t  c #4C2303",
"y  c #4C2906",
"u  c #44240B",
"i  c #4B260B",
"p  c #46290C",
"a  c #4C2B0D",
"s  c #512604",
"d  c #532B06",
"f  c #592E05",
"g  c #51260A",
"h  c #532C0C",
"j  c #5B2F0C",
"k  c #5B3106",
"l  c #5E3905",
"z  c #55310D",
"x  c #5C330D",
"c  c #5D390D",
"v  c #442512",
"b  c #4A2611",
"n  c #452B14",
"m  c #4B2C13",
"M  c #422719",
"N  c #432B1B",
"B  c #4A2D1B",
"V  c #532D12",
"C  c #5A2E12",
"Z  c #522E18",
"A  c #4D3114",
"S  c #46301B",
"D  c #4C331C",
"F  c #553214",
"G  c #5C3413",
"H  c #573917",
"J  c #5C3914",
"K  c #55341A",
"L  c #5B351A",
"P  c #56391C",
"I  c #5C3A1B",
"U  c #633406",
"Y  c #63360C",
"T  c #69360B",
"R  c #653A0D",
"E  c #68390C",
"W  c #633715",
"Q  c #623516",
"!  c #643517",
"~  c #643716",
"^  c #623513",
"/  c #6B3712",
"(  c #683716",
")  c #603912",
"_  c #603A13",
"`  c #623B12",
"'  c #613A11",
"]  c #653B11",
"[  c #663B10",
"{  c #673B11",
"}  c #603D13",
"|  c #613C12",
" . c #633C13",
".. c #673E10",
"X. c #663C12",
"o. c #673C11",
"O. c #603814",
"+. c #603815",
"@. c #613B14",
"#. c #613B16",
"$. c #633B17",
"%. c #623A16",
"&. c #633815",
"*. c #653B15",
"=. c #623C15",
"-. c #643A14",
";. c #693810",
":. c #6A3911",
">. c #6A3910",
",. c #6A3B11",
"<. c #683B12",
"1. c #6B3B13",
"2. c #683D12",
"3. c #6B3C12",
"4. c #6B3F12",
"5. c #693E11",
"6. c #6C3D13",
"7. c #6E3F13",
"8. c #6E3A15",
"9. c #6D3C14",
"0. c #6C3F16",
"q. c #693B14",
"w. c #653618",
"e. c #61371A",
"r. c #613818",
"t. c #623B1A",
"y. c #643B1B",
"u. c #613E18",
"i. c #613D1B",
"p. c #643C19",
"a. c #663E1B",
"s. c #603B1E",
"d. c #643B1D",
"f. c #603D1D",
"g. c #613C1F",
"h. c #663F1E",
"j. c #643B1A",
"k. c #6A3C18",
"l. c #683C19",
"z. c #6A3F1C",
"x. c #693E1A",
"c. c #432C21",
"v. c #4A2F24",
"b. c #443323",
"n. c #4C3423",
"m. c #4F3925",
"M. c #44342B",
"N. c #4A3728",
"B. c #4C3629",
"V. c #473A2E",
"C. c #4D3A2B",
"Z. c #4C392B",
"A. c #533324",
"S. c #503624",
"D. c #543B23",
"F. c #5C3D23",
"G. c #53372B",
"H. c #513D2C",
"J. c #4A3730",
"K. c #4F3F30",
"L. c #4B3C33",
"P. c #533B34",
"I. c #613C21",
"U. c #643E22",
"Y. c #693D20",
"T. c #6B4016",
"R. c #63401A",
"E. c #64411D",
"W. c #6C401B",
"Q. c #68411D",
"!. c #544027",
"~. c #5A4024",
"^. c #52412F",
"/. c #55412E",
"(. c #5D422B",
"). c #4D4135",
"_. c #554432",
"`. c #554434",
"'. c #554436",
"]. c #5A4634",
"[. c #5C4A36",
"{. c #52443A",
"}. c #59473C",
"|. c #55493E",
" X c #5D4C3B",
".X c #634121",
"XX c #6A4324",
"oX c #6B4926",
"OX c #624428",
"+X c #604F3F",
"@X c #5B4D42",
"#X c #5F5144",
"$X c #614F41",
"%X c #625244",
"&X c #615348",
/* pixels */
"B M v : u u e e : : : : e e e e e e : e : v v v e v u v v v v p M u v u < < < , u u M v v : < n 2 N.",
"A.B b u u i a a m n b b b i g g g b b i a i i p i v p a i m i a i i u p p p p p m B Z g i u p B 2 C.",
"A.K L L I +.e.L F K K F C F C Q ^ ^ Q G G x G x Q Q G ^ ^ ^ Q ^ +.$.R R } l } c ! ! ! ! Q G G I n ^.",
"L L I.h.l.$.) G R.f.I R.d.y.z.k.{ E :.3.3.3.6.R :.X.3.3.6.3.:./ 3.E E T.T.T.R.R / / ( 8.3.3.3.R.S `.",
"I.d.r.x j f f x d d d a d f f f U U E E E E E E U U U U U E E U T T U U U U U U U U U T T T R ) n `.",
"I.d.y.$.R R R { R R.} } J ) { X.{ X.R R E R Y Y R Y U R { R { R T.T.T.T.T.R R R Y Y R E / Y R J S `.",
"K L d.Q.W.6.2.X.R J J J +.| R | u.I J J J J c c J c c J +.J J J | | J J c J H L Q J Q r.Q H J P 3 ^.",
"K F Z j j j j x z z z d h z f z K F H A A a a A A a A a A A A m a y a a A A A F h h h h a a m D 1 M.",
"v.: = e w t s q q t = r q y r r = < < = m u = = = r u < < u n < u q = u < = u v r i r = u u < ; 1 M.",
"G.v : i i h g t t a r , e h i a v n m u m u r i p a i u u p n m b t i B u : : v a V a a p p 2 2 4 M.",
"P.c.v b g V L L I P u r u K V K L P L r g t g L G L G a u i m L k.^ e.e.Z i i V F L G x h r u B 8 J.",
"P.v.M b b L d.U.U.I a u i L L e.XX.X+.t y s ^ ( $.( Q f t t h G ^ j w.e.V e e g ^ R { $.G t r Z N V.",
"G.v.N b h F Q r.Y.I.i t a L L Q XXy.^ t s d E E :.9.~ f t w s G R Y ;.Q V w t j ^ R E 3.Y t r B N J.",
"B.B.n u a G G ^ p.r.s t t L C Q Y.L x w s f / Y E E ^ j t w t x :.E k.y.g u h L x Y R R c y q p M M.",
"v.n.p q g Y Y R { ^ s t w j j Q d.G F t s f k.Y ^ ^ G x t r a G Y l e.e.g e p z c R c R.c p r v N S ",
"B D u q h { ^ :.R ^ s s s j Y ( I F F t y h l.x ^ { G z y r h J x k Q L V i a z J R.c l z t < n 7 N ",
"2 n u u f k.^ / j k.s w t j Q ^ y.Q K u r V ( U R ^ G A y q j G Y k G r.V e u j r.2.) x +.r r b M 7 ",
"B D u q w $.( $.;.k.s w w C ^ ^ ~ C L i r h l.Y E ^ L F m = x ^ Y k Y e.h r i V p.l.Y x ^ w e v M 7 ",
"B n.u e w w.( k.x w.s w t j ^ ^ ( x e.e r h k.Y E { L h a = j ^ Y x ^ e.V e i j $.l.Y x ^ r e v M N ",
"M D p u g ( ~ :.Q ( s w w G Q ^ ^ C e.i r s k.R E ~ L a i q x Y U x ^ r.g e g C $.p.Y x ^ w e v M 7 ",
"M D u u i ~ ~ ^ ^ ( t t t j Q ^ ^ j e.i r t l.U R | I a i q x Y Y Y +.r.g e i j ^ 2.R x Q w e v M 7 ",
"N D u r t ^ ^ / ^ $.t t r C G ^ / Y I i r y 2.U R X.I a u r j Y Y Y p.r.g e a F ) l.^ x G w e b n 5 ",
"S S.v r w G ;.~ ^ k.s w w x Q ^ ;.j Q i r a +.x Y l.I a u q x Y { R l.r.a e a h G $.^ x J t r b 7 5 ",
"N n.p u t ^ Q k.x $.t w t G ^ ^ ;.j J p r a $.x ) $.H m r q G Y { { Q.+.g e i V G { R x +.r u m 7 5 ",
"m.n.u r y $.^ ^ ^ ^ t r w G ^ x :.) F p r a L x x I I A < p z Y Y R Q.J i q i j x l.) G +.q e n M 5 ",
"S.S.u u y $.^ k.^ ^ g t r Q Q x T.{ F p < A J L u..XD.v < r z R x Y l.J i r i h x +.R x G w u b 7 7 ",
"D.m.p u d $.^ ^ ^ ) y t t G ) ^ Q.R F p < m K F L P K n < u z x U x +.+.i q i C J $.Y k +.r r B n 5 ",
"m.m.< u t +.Q :.^ ) g t w L +.J ) x A p 1 < r q e < 2 1 1 u F G x x ) I a r i F J l.Y x J r u m 2 5 ",
"n.n.< , i +.$.k.^ G d t t L +.^ x z K S 1 + + o o + $ $ 1 < A J k f G J V r i z +.R.R x J r i m 2 5 ",
"S D < , t p.~ { G ) g t w J +.J x F P S ; + + o o X   # + < V u.R k G I V r r F $.R.R x $.t u m 1 1 ",
"N S < r t p.$.^ G ^ d t w G +.Q c d n < $ $ - - & o X # O @ p L l.f G r.Z r u z $.l.R x +.u u n 2 5 ",
"N n.< r g p.:.^ x G t r w F +.J F p < $ X O ; : & + O $ $ + = m u.z x u.z e r j J l.c z +.r r p 7 7 ",
"B.v.v u t +.$.^ x G d t q L e.L L r + + O + @ ; - - + + + & - < F J $.J d w t g ~ ( Y k J q = m N N.",
"B.n.v u t +.:.{ x x d u q K d.K V e + o o X O + ; : & & + o O + a F R.J s q t C y.y.c c c = e M M C.",
"B.n.e r t u.) R G G a t e C e.K * & + . + @ - - * * * * * + O O , F R.} y q e C y.Q c c c = i M M C.",
"Z.n.: u y p.| c c J d r q K e.K . o o o - n D m K L Z m < @ O O & A ~.f.g e g I.d.G c J x q u M 5 H.",
"Z.n.< < y | l.k J c y r = F I K . + & o ; A P P I I.K A n @ O O + p F.f.a r g K d.H c c H , u 3 2 K.",
"B.n.< r y $.X.c c J y y = F I K o $ o & : B K H F G F a < @ # $ o p I I a t e V I.I c H c , u v 2 C.",
"Z.n.< r y R.R c c J d r q L L L . . X o ; m H J p.Q.u.A u $ O O o v L I h r i V .Xp.c l c , = M 2 _.",
"B.D < r r | X.c Y G y r q F e.K o X X o ; a H J J ) G a < +   O o p I L y t i h Y.Q.l k R.r q v 2 C.",
"G.N u u g ( j ;.x $.t w t Q e.L ; o + . . v I F $.J x a ,     O * V I +.s w w C Q Y l l c r r p M N.",
"D.B u u g w.;.( j y.g s g F e.L M $ o ; : v F F oXQ.H = O @ O   v I h.+.s s w C ~ ) U l R r u v N Z.",
"A.B v i g $.! ( j y.g u w C Q L K & X + ; & * r , r = + O O @ @ B h.h.l.d s w C ^ Y x l l r t p N B.",
"B.N u u g ( x ^ C w.s w e V C L K D : O + + + + + + & * +   @ S K I.u.$.s t w C Q ^ Y l c w e v N N.",
"m.N < u y h.G G L E.t r e F L L I ~.P < X # # # + o + + O O 3 (.A.F.I J y t u C r.$.J c c , u v M b.",
"N.N < < p d.L x +.d.u u t K I J H H P 3 +   #   X X X X @ < D ~.F.F.F J y i e V P H J c J = e 2 N b.",
"N.S 3 < u R.L J F I p p p P P H J H P D > > 8 8 4 8 M 2 < A A S D.~.P H A m u Z F.L H J P = 2 M c.b.",
"9 b.7 3 < D.P F.K (.A D n D.D.I I F D N 1 M.@XL.{.P.G.b.3 3 D !.m.!.D !.K Z n G.F.OX~.~.~.M 7 c.8 M.",
").).> 6 6 !.^.^.]._.].[. X+X+X+X[.[.[.[.).).V.).M.9 9 N.].[.[.+X%X$X+X X X+X+X X%X%X+X+X[.}.@X@XJ.8 ",
"|.).6 9 9 ^.].|.+X+X X+X#X#X#X#X#X#X#X#X#X).`.|.M.9 9 V.|.|.#X#X&X&X#X#X#X@X%X@X#X%X%X@X@X}.@X@XP.0 "
};
