/* XPM */
static char *_66ad9dbb9b04ae4993e77e79d88b1efacSDXOm0P2Zr2Dto[] = {
/* columns rows colors chars-per-pixel */
"50 50 221 2 ",
"   c #0F1915",
".  c #09130E",
"X  c #19261A",
"o  c #2A291A",
"O  c #382614",
"+  c #07272A",
"@  c #1A292B",
"#  c #082D31",
"$  c #12362D",
"%  c #222D2A",
"&  c #2B2B27",
"*  c #382E29",
"=  c #2B342C",
"-  c #34332F",
";  c #3B3B29",
":  c #2D3A34",
">  c #2B3531",
",  c #353531",
"<  c #383733",
"1  c #323C36",
"2  c #3B3A35",
"3  c #333C3C",
"4  c #3E3D39",
"5  c #52181E",
"6  c #6D1C1E",
"7  c #50221F",
"8  c #5A1D24",
"9  c #45352A",
"0  c #413F3A",
"q  c #493936",
"w  c #5A3936",
"e  c #4F322A",
"r  c #673737",
"t  c #792D2C",
"y  c #3C423B",
"u  c #334239",
"i  c #48412B",
"p  c #43423D",
"a  c #474839",
"s  c #5D563D",
"d  c #594A34",
"f  c #67423F",
"g  c #715F3B",
"h  c #69612F",
"j  c #723A43",
"k  c #3C4441",
"l  c #354E49",
"z  c #464641",
"x  c #494742",
"c  c #4B4A45",
"v  c #444F4B",
"b  c #4E4E48",
"n  c #464A43",
"m  c #514E49",
"M  c #564943",
"N  c #43524D",
"B  c #4C5147",
"V  c #54524C",
"C  c #58554F",
"Z  c #575849",
"A  c #4A5A55",
"S  c #555651",
"D  c #595650",
"F  c #545B53",
"G  c #5E5C55",
"H  c #5B5B5B",
"J  c #664848",
"K  c #7C4445",
"L  c #605D56",
"P  c #625F58",
"I  c #6A5E4F",
"U  c #5E634D",
"Y  c #4B635B",
"T  c #5B635D",
"R  c #596253",
"E  c #62644A",
"W  c #736643",
"Q  c #64625B",
"!  c #69665E",
"~  c #666B57",
"^  c #756755",
"/  c #74775A",
"(  c #6D7351",
")  c #556662",
"_  c #596D66",
"`  c #5B756C",
"'  c #5A766B",
"]  c #5B7774",
"[  c #6A6760",
"{  c #6D6A63",
"}  c #656A67",
"|  c #716E66",
" . c #726F68",
".. c #7C6B68",
"X. c #65726A",
"o. c #75726B",
"O. c #747269",
"+. c #627B75",
"@. c #677A76",
"#. c #717976",
"$. c #8F1A1C",
"%. c #A51B1E",
"&. c #8A1E23",
"*. c #9E1C22",
"=. c #87393B",
"-. c #90242C",
";. c #AE2629",
":. c #B92F2A",
">. c #B22C33",
",. c #AC3738",
"<. c #C63636",
"1. c #87713D",
"2. c #9A7B3E",
"3. c #DC443F",
"4. c #A93C44",
"5. c #D53D40",
"6. c #835045",
"7. c #A24A4B",
"8. c #B54C52",
"9. c #AF4D50",
"0. c #887450",
"q. c #917671",
"w. c #A47E61",
"e. c #DA4444",
"r. c #C35558",
"t. c #D9595C",
"y. c #E54947",
"u. c #E44F51",
"i. c #E55958",
"p. c #F35351",
"a. c #FC5956",
"s. c #F55A5B",
"d. c #FA5A59",
"f. c #FB5A5A",
"g. c #F8555A",
"h. c #FA655F",
"j. c #D15F67",
"k. c #F85D62",
"l. c #CB696A",
"z. c #D26565",
"x. c #F56867",
"c. c #69857B",
"v. c #72867D",
"b. c #798274",
"n. c #908A5C",
"m. c #B99754",
"M. c #8B8A69",
"N. c #8B9276",
"B. c #A88E65",
"V. c #B8A270",
"C. c #CCB06F",
"Z. c #6C8C83",
"A. c #6F8885",
"S. c #728C84",
"D. c #798A84",
"F. c #788786",
"G. c #73938C",
"H. c #78938B",
"J. c #7C9692",
"K. c #7E9C94",
"L. c #6E9488",
"P. c #7FA598",
"I. c #868E89",
"U. c #879689",
"Y. c #909B8C",
"T. c #819D96",
"R. c #8A9897",
"E. c #958B8B",
"W. c #89A89D",
"Q. c #93AC9E",
"!. c #92A49E",
"~. c #A4AA9A",
"^. c #AEB792",
"/. c #8DACA4",
"(. c #97ABA6",
"). c #8BB2A6",
"_. c #9BB5AD",
"`. c #96BBAD",
"'. c #96B4A7",
"]. c #9BBFB3",
"[. c #95B8B2",
"{. c #A7A9AC",
"}. c #A5BBA8",
"|. c #A4B5B3",
" X c #A4BCB3",
".X c #ABB9B8",
"XX c #B9B9B8",
"oX c #ABACB5",
"OX c #9FC5B9",
"+X c #ACC4BC",
"@X c #A7C7BD",
"#X c #B1C2B9",
"$X c #D0D1B5",
"%X c #BDBCC2",
"&X c #ABCBC3",
"*X c #B6CBC8",
"=X c #ACD2C5",
"-X c #AAD2C8",
";X c #B4D5CA",
":X c #B9D6CD",
">X c #B6D3C9",
",X c #BCDBD2",
"<X c #D3D9CF",
"1X c #C4DCD5",
"2X c #CCD0D1",
"3X c #C5E3DA",
"4X c #CBE5DD",
"5X c #C8E6DC",
"6X c #D4E5D6",
"7X c #CEEAE1",
"8X c #D3ECE4",
"9X c #DCEEEA",
"0X c #D9ECE5",
"qX c #DBF2ED",
"wX c #E5F5EC",
"eX c #E3F6F3",
"rX c #E5F9F5",
"tX c #EAF9F5",
"yX c #ECFCF9",
"uX c #E9F7F8",
"iX c #F1FBF9",
/* pixels */
"D x G L G { b - c L L L Q V G G G G L G x L L L L L 2 G G G ! C - z G G G [ b L G G L G L m m P L G ",
"D x G L G Q P - 0 L G m Q V G G G G G C , m L D L L 2 G L G L ! - 2 L G m P D D G G L G D 4 x L G L ",
"C G G G L G Q 4 - m x 4 G 0 V G G D V 4 c p D H D V Q G L G G Q z - z m , L x m G G G V 0 x 0 V G G ",
"O.[ V D G G D < - - < D V 4 2 b { c < - m D M q q V V D D G L D 4 , , < m D 0 < c Q D < 4 P | Q m b ",
"L L p z C V p G p < Q ! | [ z z B 9 f f 9.l.z.z.l.7.=.J & C C p D c , D [ { [ b , { m - L P G ! | G ",
"C V p 0 4 2 b Q V c ! L H P m j 8.t.x.d.a.h.a.a.a.d.d.k.j.r * p [ D 0 { L L P [ G G x - m L G L G x ",
"p C { { V < m G m c G L G H G r %.:.k.a.a.a.f.a.f.a.f.f.g.s.8.q D S p G L L G L O.V 0 - m L G G G c ",
"- c L L [ G p D p x G G L L H q -.%.u.s.f.f.a.a.a.a.a.p.p.a.d.r.w x 0 L G G G G H < - - D L L G G b ",
"4 x L L G L p p 4 z D L G L D 0 5 *.<.s.a.a.a.y.p.f.f.e.e.f.f.k.j.& z V L L L G z p < - C G G G V < ",
"Q x G G G G m < z m m G G D 0 Q 0 &.;.d.f.a.a.y.<.u.5.;.>.<.e.5.x.t m p G L G x G | { 4 0 D G V 0 | ",
"c x G G G x D D 2 p < c b 0 G Q L 8 %.e.a.a.a.y.$.6 e r J w 6 >.g.i.9 , z m p c ! G L  .D z b < 4 L ",
", D G L V c Q D D P - - 4 , S G L q $.:.k.k.7.r E.<XtXtXyXeX0Xq.-.e.j , - 2 , m G G L G { o.G - 4 V ",
"m G G G m p C Q [ Q G 2 | z V G G 4 7 &.8.K b.7XyXyXyXyXtXeXtXwXq.,.7.D - { b c G G G L G L Q - P | ",
"[ P V V x < Q [ G G O.< D 0 4 S m ` ' S R (.eXyXyXyXyXqX0X4X4X8XwXw 4.p y D x < V G G G G C b - G G ",
"L Q { < - x ! G G G L - 0 p Q [ ) `.@X,X,XqXtXiXiXyXeX8X7X7X3X3X0XXX=.q 4 4 p D { D G L Q Q < - P G ",
"L L Q 4 - z G L G L L , , Q Q Q F.@X@X1X4X9XrXyXyXyXqX7X3X3X3X,X*X6Xt J 2 - G Q Q [ V Q { L O.x x G ",
"L G G 2 - z G G G G D - Q P G L F.A._ ] ] H.A.R.1X9X4X5X3X3X:Xc.R.R.M J < H Q L G ! C m G | G D < G ",
"m m L D - 0 D G V m 0 0 | L G G A +.;X8X:X1X*X X'.T.` L.(.W.c.&X7XuX<X2 -  .L G G L c m { L G V < p ",
"[ m Q [ [ G p z 4 < - 2 L G L G 3 T.+XqX> _.0Xv.4X0X:X3X>XH.' =X7XyXuXI.- L L L L L x 0 ! L G G c < ",
"D x G L L L 0 < c 4 - 4 G G L D @.T.S.qXk #.4X: !.&X= 3XN _.c.].;XeXeX*X& L L L G L c 0 C G G L m c ",
"D x L H L G p V { { 0 2 G L G v (.K.] 7X) v 4Xv v.;X% >X1 S.L.L.OX;X,X:X= G G G L D 0 m L G G G m x ",
"D x L L G G 0 D G P | 2 G G G z %XJ.Y 3XF.% 1XX.A 3X% _.V ] W.c.).-X-X].< L G G D p - p G L L G x p ",
"0 - m L D b < C G G Q G x G m x G.G.+.*X(.  &XD.: ,Xl v.OXP.K.c.L.[.-X#.! p D C C 0 0 p C D C x 4 O.",
"x - m Q G 4 - D G G G G , m  .| ] G.A.).*X. |._.X @XL.c.OXc.c.c.A.Z.] b P , c {  . . .| { p 4 - c P ",
"L 2 O.! | m - m L H L C - C L G T K.K.c.1X  H.+XX OX;XOX_ /.W.G.l % D G G - c P G G G G ! b - Q Q L ",
"C c L G L ! p 2 M H L L D m L G D _ _.Y +XY X.;X).@XP.c.-X`.W.W.N c L L G P x G L G L L L V m Q G G ",
"C c L G L Q { H } L H m [ H L G G B c.Y @Xc.' =X@XG./.,X-X[.] F - 2 L U V ! Q G G G G G G 0 x L L L ",
"V C L L L L } 2X%X{.v 3 L 0 C L G G k G.@X=X=X).' ;X,X X#.> 3 ) 0 , c B < L x m G L G D z 0 4 D G G ",
"{ { m G G L D F.{.oX%XF.b 0 4 V ! b 2 : ).-X' l ` T ' s 0 Y.qXeXX.- X o p C p 2 V Q C 2 < P { G V m ",
"Q G x c D D 0 b } R.oX%X.Xv.y x O.z 2 ! ) A S k Z v.W.i o ~ N.R.` s V.N.U { ! 0 <  .b - G Q P { O.L ",
"G D 4 4 0 0 m [ m z X.{.oXXX{.S D p 2 D G S 3 3 & A ~ * I.~ M.> = V.$XwX~.a Q { m L x - V G G G G c ",
"z V Q P x , m L m b L L } R.{.|.E.p = y U  XF.+ + R 9  X'.(.}.B ; C.$X6X$X~ G L O.V p - V G L L D c ",
", m P P { D x G z x G G G G X.R.~.W d 0.0.o.] + # X ~ +XK.@.D.> x m.}.^.C./ L L P 4 , - D L H L L m ",
"< x L L G P 0 z 4 0 G G L G D 2 Z d 6.B.B.u # $ #   ; F I.I O 2 y 0.^.OXM.M.L G x 4 , - V G G L D < ",
"G x G G G G z , x m S L G G x S { V ^ q.e s $ Y @ u 0.7 O E Y.} - i B.}.[.M.D b m { L , p G L C 0 P ",
"m x G L G b P G 4 z 2 b m z D ! L ! Z b a W X._.% X o u > +X,X@.S 0.2.n.Q.( x z [ L P { c x V 4 4 P ",
"< V L G V x P D m G , , < , D G G G L { O.n N D.Z.y b G G N l u G q.d h h ; , m G L L L { O.V - < m ",
"z L G L m x D P { P V 2  .z S G L G L G Q G - Q.K.n G G G S ) y C V V Z - { b b G G G G L L Q < G o.",
"| G m V x < G [ L H  .2 G 0 0 G L G L L D V u M.~ a ! Z C } 9XD.#.L G { 4 D z 2 D G L G G G V < P L ",
"G { [ 4 < p { P L L L - z 0 m G D G G L V % a 0.g m ! o.2 4  XW.[.V G Q 4 p p z G D G G G L < - G L ",
"G G Q 4 - c G L G L L , - D [ [ ! b { ! v.I._.'.W.T G ! p - 1 |.#Xi L L 2 - Z ! [ ! V [ | L | 4 m L ",
"L L G 2 - p D G G G D - G ! G L | b C V v.I.N./ / F G G 4 - 4 s 2.1.G L 2 V ! L G { D m D | L D 2 G ",
"V V D b - p G G C m z 4 | G L G L p D ! a i a y a V V D V < 4 ~ ^.~.T p -  .L G G L b m { Q L V , x ",
"Q V { { Q C x x 4 2 , 4 L G L G G p V { G G F 2 - Q p { { Q G |.,XOX_ - - Q G G G G x p { L L D z , ",
"G c G G Q Q 4 < p < - < L L G G G p p L G L G c G ! 2 L G Q |.tX3XQ.a = - G L L G L x 4 C G L G m x ",
"D x G L G G p b | ! < 4 G G L G G 4 D L G G G x G L 2 G G L v.}.Y./ R a - G G G G G p V L L L G b x ",
"D x G L G G p C G L { 2 G G G C p < m G G L D p m G 2 G G G m ( E m L { 2 L L L D c - x G G G G c p ",
"x < V G G V 2 C G L ! V m G G p - - 2 L L D x x Q c - V L G C 4 M L L Q G c D D m - - - C G G c 4 [ ",
"4 , c P D 4 , C G G L Q < c P o.o.o.O.G z p < z { c < p G D p - B G G L ! - c G O.o.o.o.Q c z , p [ ",
"Q - o.| O.x - V G G G C , G Q G P P L | - - G L G { - { O.| V - c L G G L - Z ! G G P G { z , V [ G "
};
