/* XPM */
static char *_61fcbf627a74b5bd6bbf61e922438fesJ4tI2wfvFQLZQK6[] = {
/* columns rows colors chars-per-pixel */
"50 50 224 2 ",
"   c #0F1915",
".  c #09130E",
"X  c #18261B",
"o  c #242B1D",
"O  c #2E2513",
"+  c #382614",
"@  c #07272A",
"#  c #1A292B",
"$  c #082D31",
"%  c #12362D",
"&  c #232D2A",
"*  c #2A2B24",
"=  c #372A25",
"-  c #26322E",
";  c #2B312D",
":  c #2E3627",
">  c #34332F",
",  c #3A382A",
"<  c #2D3934",
"1  c #2A3532",
"2  c #363531",
"3  c #383733",
"4  c #3B3A35",
"5  c #343C3C",
"6  c #3E3D39",
"7  c #363934",
"8  c #51181E",
"9  c #6D1C1E",
"0  c #50221F",
"q  c #5A1D23",
"w  c #453629",
"e  c #403F3A",
"r  c #4C3835",
"t  c #5A3B37",
"y  c #4F3129",
"u  c #663736",
"i  c #732323",
"p  c #3D413C",
"a  c #394237",
"s  c #47422D",
"d  c #43423D",
"f  c #474239",
"g  c #5C563D",
"h  c #554C36",
"j  c #715F3B",
"k  c #6A6230",
"l  c #793F43",
"z  c #653443",
"x  c #3C4540",
"c  c #354E49",
"v  c #464641",
"b  c #494742",
"n  c #4B4A45",
"m  c #4E4E48",
"M  c #434D48",
"N  c #524C42",
"B  c #514E49",
"V  c #5C4946",
"C  c #4B524C",
"Z  c #485248",
"A  c #54524C",
"S  c #58554F",
"D  c #595D4A",
"F  c #585A4B",
"G  c #4A5954",
"H  c #555650",
"J  c #595650",
"K  c #5E5B55",
"L  c #565C57",
"P  c #684847",
"I  c #7A4B48",
"U  c #685E4B",
"Y  c #605D56",
"T  c #625F58",
"R  c #4B635B",
"E  c #58635A",
"W  c #59614D",
"Q  c #746643",
"!  c #65625B",
"~  c #69665E",
"^  c #666B57",
"/  c #74785A",
"(  c #6F6B53",
")  c #536562",
"_  c #596C66",
"`  c #5B756C",
"'  c #5C7869",
"]  c #5B7472",
"[  c #5B7975",
"{  c #4F6260",
"}  c #6A6760",
"|  c #6D6A63",
" . c #6B6D6B",
".. c #626B65",
"X. c #716E66",
"o. c #726F68",
"O. c #7C6B68",
"+. c #65736C",
"@. c #667365",
"#. c #75726B",
"$. c #747269",
"%. c #627C76",
"&. c #6C7E7A",
"*. c #687874",
"=. c #757875",
"-. c #8F1A1C",
";. c #A51B1E",
":. c #8A1E23",
">. c #9E1C22",
",. c #873639",
"<. c #90242C",
"1. c #AE2629",
"2. c #B92F2A",
"3. c #B22C33",
"4. c #AC3738",
"5. c #C63636",
"6. c #82403D",
"7. c #87713D",
"8. c #9A7B3E",
"9. c #DC443F",
"0. c #A93C44",
"q. c #D53D40",
"w. c #835044",
"e. c #A24A4B",
"r. c #B54C52",
"t. c #AF4D50",
"y. c #887450",
"u. c #927771",
"i. c #A47E61",
"p. c #DA4444",
"a. c #C35558",
"s. c #D9595C",
"d. c #E54947",
"f. c #E44F51",
"g. c #E55958",
"h. c #F35351",
"j. c #FC5956",
"k. c #F55A5B",
"l. c #FA5A59",
"z. c #FB5A5A",
"x. c #F8555A",
"c. c #FA655F",
"v. c #D15F67",
"b. c #F85D62",
"n. c #CB6869",
"m. c #D26565",
"M. c #F56867",
"N. c #69857B",
"B. c #72867C",
"V. c #798274",
"C. c #908A5C",
"Z. c #B99754",
"A. c #8B8A69",
"S. c #8B9276",
"D. c #A88E65",
"F. c #B8A270",
"G. c #CCB06F",
"H. c #6C8C83",
"J. c #6F8885",
"K. c #728C84",
"L. c #798886",
"P. c #73938C",
"I. c #78938B",
"U. c #7B9691",
"Y. c #7E9C94",
"T. c #6E9488",
"R. c #7FA598",
"E. c #848F8A",
"W. c #88958A",
"Q. c #909B8C",
"!. c #819D96",
"~. c #899796",
"^. c #958B8B",
"/. c #88A99C",
"(. c #93AC9E",
"). c #92A49E",
"_. c #A4AA9A",
"`. c #AEB792",
"'. c #8DACA4",
"]. c #8BA5A0",
"[. c #97ABA6",
"{. c #8BB2A6",
"}. c #9BB5AD",
"|. c #96BBAD",
" X c #96B4A7",
".X c #9BBFB3",
"XX c #95B8B2",
"oX c #A8A9AC",
"OX c #A4B9A9",
"+X c #A4BDB3",
"@X c #A8B8B7",
"#X c #B9B9B8",
"$X c #ABACB5",
"%X c #9FC5B9",
"&X c #ACC3BB",
"*X c #A7C7BD",
"=X c #D0D1B5",
"-X c #BDBCC2",
";X c #ABCBC3",
":X c #B7CBC8",
">X c #ACD2C5",
",X c #AAD2C8",
"<X c #B4D5CA",
"1X c #B9D6CD",
"2X c #B6D3C9",
"3X c #BCDBD2",
"4X c #D3D9CF",
"5X c #C4DCD5",
"6X c #CCD0D1",
"7X c #C5E3DA",
"8X c #CBE5DD",
"9X c #C8E6DC",
"0X c #D4E5D6",
"qX c #CEEAE1",
"wX c #D3ECE4",
"eX c #DBEDE8",
"rX c #DBF2ED",
"tX c #E5F5EC",
"yX c #E3F6F3",
"uX c #E5F9F5",
"iX c #EAF9F5",
"pX c #ECFCF9",
"aX c #E9F7F8",
"sX c #F1FBF9",
/* pixels */
"J b Y K K | n 2 n Y K Y ! H Y K K K Y K b K Y K Y K 4 Y Y Y T J 2 d K Y Y  .B Y Y K K Y Y B B T K Y ",
"J b K Y Y ! T > e Y K B ! B J Y Y K Y H 2 B K Y Y K 4 Y Y Y Y } 2 3 Y J B T J J Y K K K J 6 n K Y K ",
"S K K K Y K ! 6 2 n n 4 Y e H K Y K B 6 n e J K K B T J Y Y Y T v > v m 2 Y b B Y Y K A e b e A K K ",
"$.} A J K K J 3 2 2 2 J B e 4 B } n 2 e } o.Y 6 4 S V N b v n J 6 > 2 3 B J e 2 n T J 2 4 T o.} m B ",
"Y Y d v S A d K v 3 T } o.} d b | v 4 } K 4 I w.e.m.m.m.n.t.I z r 3 > J } | | B 2 | n > Y T Y ! o.K ",
"S A d e 6 4 m ! B n | Y K Y | J Y e 4 b u v.b.b.x.z.j.l.j.z.c.M.s.r.z A T K T } K Y b > B Y K K K b ",
"d S | ~ A 2 A K B n K K K Y Y | A 2 0 r.b.x.z.j.l.z.j.j.j.j.j.c.2.;.u K K K K K o.B e 2 A K Y Y K n ",
"> n Y ! } K d J d b Y Y K K Y B 2 w r.k.z.h.h.j.j.z.j.j.l.l.l.f.;.<.> K Y K K K Y 3 2 2 J Y K K Y n ",
"6 b Y K K T d d 6 v K K Y Y J d 3 a.b.z.z.p.p.j.j.h.d.j.j.j.l.5.>.8 d H K K T K v v 2 2 H Y K K A 2 ",
"! b K Y K K B 3 v B n K K J d J ,.x.q.p.5.3.1.p.f.5.d.j.j.z.k.1.:.= J d K K J b K o.| 4 e J Y A e o.",
"n b K K K b J J 4 e 3 n B e L r g.b.3.i u I h q 9 -.f.h.j.l.p.;.q 2 v 2 b m b n } K Y o.J b n 3 4 Y ",
"2 J K Y A n ! S J ! > > 6 2 J l p.<.$.eXuXpXiXiX4X^.t r.k.l.2.:.w A | 2 > 4 2 B K K Y Y } #.K > 6 H ",
"B K K K B d S ! } ! K 3 o.v b e.4.u.rXyXyXiXpXpXpXpXwX=.w.r.:.0 5 | ! ! >  .m n K Y Y K K Y T 2 T o.",
"| T A A b 2 ! } K K #.3 J d = 0.t tXwXqX8XeXrXpXsXpXsXrX[.L F ' ] m K | e H b 2 B K Y K K K B 2 Y Y ",
"Y ~ | 2 > b ~ K Y Y Y > d d r ,.#XeX5XqX9XqXwXyXpXsXsXiXeX3X5X*X.X_ Y Y 4 e e K | J K K T T 2 > K K ",
"K K ! 6 2 v K Y K K K 2 > ! P l 4X;X3X3X9X9X8XrXpXpXpXyXrX8X3X*X@XL.K Y 4 > K } T | B T | T o.b b Y ",
"K Y Y 4 2 v J Y K K J 2 } K P P Q.!.B.1X7X7X7X9XeX5X~.B.I.] ` _ J.L.L K 3 K ! Y Y } S V K | Y K 3 K ",
"B B Y J > e J K H m 6 6 | K v 6XyXwX*XN.(. XK.' !. X+X2X5X1XwX1X] { H d >  .K Y K K n m | Y Y B 2 d ",
"~ B T ~ } Y d v 3 3 2 4 K K ~.sXpXqX>X' I.1X7X2XwX8XB.eX[.< rX&XY.- 3 > > T K K K Y b e } Y Y J n 2 ",
"J n Y Y Y T e 2 n e 2 3 K H :XyXyX,X%XN.|.Z 8X- ;X).1 qX&.p rXK.~.&.e > > Y Y K K Y n e S Y Y Y A n ",
"J b Y K Y K e H | | e 6 K A 1X1X<X%XT.T.H.5 >X& 1XL.M 0XM E wX%.Y.'.G b > K K K K J e B K K Y Y B b ",
"J b K Y Y Y d J Y T o.3 Y J @X,X,X|.T.R.[ C |.# 5XG +.5X& L.7XG P.-XC  .4 K T Y J b 2 d J Y Y J b d ",
"e 2 B Y J n 2 H K K ! K v J *.,X%XT.H.P.{.%XN.Z 3X< L.;XX [.;X%.U.U.J ! ~ d J J A d e e J J J b 6 #.",
"v 2 B ! K 6 2 J Y K K K > A L ] N.H.N.' N.%XB.H.,X  }.}.. ;X[.K.P.] K K T > b } o.o.o.o. .d e 2 n Y ",
"Y 3 #.~ X.B > B Y K Y S > S K J - c P.].'._ *X,X.X# &XI.  5XN.!.U.L T K K > m T K K K K ~ B > ! ! Y ",
"J n Y Y Y } d 4 B Y K Y J B K K L G '.].|.,XN.R.>X/.<X' G 2XR }.{ m T Y T T b T Y K K K Y A n ! Y K ",
"J n Y J K ~ K > d Y K A | K K K K K G %.{.,X1X'.K.*X<X' N.;XR %.; 4 T T A } T K K =.#.} K d b Y K K ",
"A J Y Y Y Y ! 6 2 A n 6 Y d S K K J H 5 1 B.+X3X1X] {.>X,X%XI.n d > b B 3 K d M oX-X6X .d e e J K Y ",
"| X.A K K Y J 6 > 2 3 m D a o o ! *.yXrXQ.w h ' ) ` c ] %X{.c K e > 2 3 d c L.-X$XoXE.4 2 ! | K A A ",
"Y Y d b J J d B e > K | | W C.F.U ] ~.S.@.O s '.B.S 5 p G R K b m d > m L.-X-X$X~.L.n 2 K ! Y | X.Y ",
"K S 6 6 e e n } A b | K Z `.tX=XF.< 1 A.^ W.= ^ G o 5 - a d d d } H M oX-XoXoX*.m Y b > A K K K K n ",
"b A ! ! b 2 B Y B B W ! U =X4X=XG.o v OX X}.+Xy Y @ @ P.OXW : 7 m ^.$XoX~. .K K #.A d > A K K K K n ",
"> B T ! | J b K v b K K y.G.OX`.Z.* ; L.%.Y.&X^ o $ @ ] V.7.y.N Q _.~.+.K K K K T 6 2 2 H Y K K K B ",
"2 n K Y K T d v 4 d K K S.A.%X`.y.; > + U W.D w   $ $ @ a D.i.w.h D 2 S K K T K b 6 2 2 B Y K Y J 3 ",
"K n K K K K b 2 b A A K A.|.}.D.r C R Q.F + + y.< # R % k r u.( f 6 K v K Y K n B | Y 2 b K Y J d T ",
"B b K Y K m T J 6 v 3 n ( (.C.8.y.F &.3X#X- & : & - |.@.Q N S n ! 3 n 2 n H n v } Y T | n n B 6 6 T ",
"2 A Y K A b T J B K > 2 a k k h u.J p c { v > 6 C H.K.E H J d Y T v ! > 2 2 2 A K Y K T } o.H 2 3 B ",
"d Y K K B b J T | T A 6 ^ a B S b Y p ) J Y > o.| !.[.C K K d J K | ! K > o.m B K K Y K K T ! 2 K #.",
"X.K A A b 3 K | Y Y $.2 J d f K K +.L.eX .B 6 Y f ( S.s S S > A | T Y | 6 K v 3 J K Y K K K B 3 T Y ",
"Y | } 6 2 d X.K K K ! > v e A J C XX].+XK 3 4 Y B j y.W - > 3 } Y K K Y 4 d d d K J K K K T 3 2 Y K ",
"Y K } 6 2 n K K K Y K > > K } } s &XOXF Y X.2 K E Q.(.|.L.+.d ! K K K K 4 > S } } } B } X.Y X.6 A K ",
"K K K 3 > d J K K K K > K ! K K 7.8.g F o.Y B e W / V.E.W.B.7 J K K K K 3 S ! K K } J B J X.Y J 3 K ",
"A A J m 2 d K K J A v 6 X.K K ..(.`.^ } Y Y B 3 d Z N h s 7 4 J K J S v 2 o.! K K Y m B | ! Y A 2 b ",
"! A | | ! A n n 6 3 > 6 Y K K +.%X3X@X} Y Y J 3 > ^ d | ~ ! J b n d 4 > > ! K K K Y b v | Y Y J v 2 ",
"K n Y K ! ! e 2 e 3 2 3 Y Y K F (.9XaXOXK K K n K ! 4 Y K ! ! b 2 p 6 > > K K Y K K b 6 J Y K K A b ",
"J b Y K K Y d n o.} 3 6 K K K B / Q.%XV.K K K v K ! 4 K K K Y n d $.| 4 2 Y K K K K f A Y Y K Y n b ",
"J b K Y K K d J K T | 3 Y K K F s g / m K Y K d B Y 4 K K K K b B Y Y X.3 K K K K b > b K Y K K n d ",
"v 3 A K K A 3 J K K } F n K J b > > 4 Y Y J v b ! n > A K K J 6 B K Y ! K b K K n > > > S K K n e } ",
"e 2 n T J 6 > A Y K K T 3 n T #.#.#.#.J b d 2 v | n 2 d Y K d > B Y Y K ~ 2 n K #.#.#.#.! n d 2 d | ",
"! > #.o.#.b 2 A K K Y S 2 Y ! K T T Y X.2 > K T K | > } $.X.A > n K K K Y > A ~ Y K Y K | v > A } K "
};
