/* XPM */
static char *b524187a52e24e4bddb77ade92d359227XpD9L5If0dSzgmD[] = {
/* columns rows colors chars-per-pixel */
"50 50 212 2 ",
"   c #0D1714",
".  c #371A06",
"X  c #281606",
"o  c #17211E",
"O  c #392911",
"+  c #1F3131",
"@  c #122727",
"#  c #34332F",
"$  c #3A3D2E",
"%  c #2C3B35",
"&  c #2B3F3F",
"*  c #283635",
"=  c #363531",
"-  c #383733",
";  c #3B3A35",
":  c #3E3D38",
">  c #323931",
",  c #64131E",
"<  c #73191F",
"1  c #51361F",
"2  c #55282A",
"3  c #47322C",
"4  c #403F3A",
"5  c #5E3631",
"6  c #523D31",
"7  c #6C3434",
"8  c #38452D",
"9  c #324234",
"0  c #33453E",
"q  c #3D4839",
"w  c #43423D",
"e  c #464735",
"r  c #525439",
"t  c #4E4529",
"y  c #644325",
"u  c #5E623A",
"i  c #696339",
"p  c #666530",
"a  c #796A37",
"s  c #273E40",
"d  c #2C4242",
"f  c #2C4D46",
"g  c #364A43",
"h  c #384B48",
"j  c #2F5551",
"k  c #3C5352",
"l  c #3A5658",
"z  c #474640",
"x  c #484742",
"c  c #424844",
"v  c #4C4A45",
"b  c #4F4E48",
"n  c #434E4B",
"m  c #514E49",
"M  c #43534B",
"N  c #4E5748",
"B  c #54524C",
"V  c #58554F",
"C  c #445552",
"Z  c #475B53",
"A  c #565650",
"S  c #595650",
"D  c #5E5C55",
"F  c #525B50",
"G  c #665C46",
"H  c #605D56",
"J  c #625F58",
"K  c #4B635C",
"L  c #46645D",
"P  c #586659",
"I  c #6B684A",
"U  c #726948",
"Y  c #7F7242",
"T  c #65625B",
"R  c #69665E",
"E  c #686A55",
"W  c #786E5A",
"Q  c #465D61",
"!  c #4B6564",
"~  c #4F6967",
"^  c #596D65",
"/  c #526C6A",
"(  c #5B6E6B",
")  c #526864",
"_  c #54736B",
"`  c #597268",
"'  c #5D7A73",
"]  c #5C7574",
"[  c #6A6760",
"{  c #6D6A63",
"}  c #606E69",
"|  c #716E66",
" . c #726F68",
".. c #62736C",
"X. c #727067",
"o. c #75726B",
"O. c #767B6E",
"+. c #647B74",
"@. c #647B79",
"#. c #607371",
"$. c #85141D",
"%. c #94393E",
"&. c #A02D32",
"*. c #846A3E",
"=. c #8B524F",
"-. c #AF5B4D",
";. c #AC4343",
":. c #807254",
">. c #977B4D",
",. c #E04F51",
"<. c #EC5F5C",
"1. c #FB5957",
"2. c #F55B5B",
"3. c #F95C5B",
"4. c #F75A55",
"5. c #D15256",
"6. c #66857C",
"7. c #6E847D",
"8. c #69857A",
"9. c #798579",
"0. c #9C884B",
"q. c #998758",
"w. c #A4925A",
"e. c #A99558",
"r. c #9D9A6F",
"t. c #828671",
"y. c #919C7D",
"u. c #9B857E",
"i. c #A59A6E",
"p. c #9DA178",
"a. c #A7A16E",
"s. c #A6A279",
"d. c #E38174",
"f. c #D4C47E",
"g. c #6B8B84",
"h. c #738D85",
"j. c #778B87",
"k. c #739489",
"l. c #7D948F",
"z. c #76988D",
"x. c #78998E",
"c. c #7A9691",
"v. c #7FA399",
"b. c #899884",
"n. c #839495",
"m. c #819D99",
"M. c #889A98",
"N. c #9F9893",
"B. c #939588",
"V. c #A39E87",
"C. c #84A39B",
"Z. c #8AA49C",
"A. c #8AA99E",
"S. c #92A89F",
"D. c #A5AB87",
"F. c #ACB69A",
"G. c #879EA2",
"H. c #8DA5A5",
"J. c #92A9A3",
"K. c #94AAA7",
"L. c #8FB3AA",
"P. c #94B1A7",
"I. c #98B6AA",
"U. c #9CBAB1",
"Y. c #97B9B2",
"T. c #A0B8AF",
"R. c #A2B6B1",
"E. c #A3BEB6",
"W. c #A8BFBC",
"Q. c #B7BCB5",
"!. c #9AC0AF",
"~. c #9CC1B4",
"^. c #9BC5BA",
"/. c #A3C1B6",
"(. c #A4C5BB",
"). c #ACC4BC",
"_. c #A7CABD",
"`. c #A8C9BD",
"'. c #B2C7BF",
"]. c #B4C6B3",
"[. c #ABCBC3",
"{. c #AAC5C2",
"}. c #B5CAC4",
"|. c #B5CCC7",
" X c #A9D7C6",
".X c #BCD4CD",
"XX c #BCDCCC",
"oX c #BDDBD4",
"OX c #BFE3D7",
"+X c #C3DEDA",
"@X c #C8DAD5",
"#X c #C4E1D7",
"$X c #CBE4DB",
"%X c #C7E5DC",
"&X c #D2E8DC",
"*X c #D6E9DE",
"=X c #E1EDDB",
"-X c #CEEAE2",
";X c #D3E5E3",
":X c #D3EBE3",
">X c #D6EEEC",
",X c #DBEEEB",
"<X c #D8EFE7",
"1X c #DCF3ED",
"2X c #D7F0E7",
"3X c #DFF6F4",
"4X c #E4EBF0",
"5X c #E6F3F2",
"6X c #ECF7F7",
"7X c #EBFAF8",
"8X c #F0FAFB",
"9X c #EBF4E6",
/* pixels */
"S x D D D { v = v H H H J B D D D D H D x D H D H D : D D D R V # z D D D [ b H D D D H H m m H D H ",
"S x D H H T J # 4 D D m T B D D D D D A - m D H H D - D H D H R # ; H D m J S S D D D D S : v H D D ",
"V D D D D D T : = v x : H 4 B D D D m : v 4 S H D B J D H D D J z # z b = H x m D H D A 4 x w B H D ",
"X.[ V S D D S - = = - S B : ; b [ b - 4 [ | J m v { [ D V D D D : # # = B A 4 - b J S = ; J  .[ b b ",
"H D w z V B w D z - J [  .[ w x [ z : R D D [ e 5 5 2 x w B V w D v # S [ { { m # { b # H H D J  .D ",
"V B w w : ; b T m x { D D H { S H 4 - S H D P <.3.4.;.w w : 4 w [ S : | H D J [ S H z # m H D H D x ",
"w S [ R B = B D m b D D D H H { B : - S D D D -.3.1.%.[ [ S : x D S z D D D H D  .B 4 = m H D D D v ",
"# v H T [ D w S w x H H D D H m - # - J D H H =.3.2.7 T H R T w S x w D D H D D J - = = S H H D D b ",
": x H D D H w w : w S H D H S 4 x # - D H H P 7 3.2.2 D H H T x 4 ; z B D D H D x w - # B J D H m - ",
"T x D D D D b - x B b D D S w T | T ; w D H ) =.2.2.= h D D D B ; : S z D D S z D  .[ ; 4 S H m 4  .",
"v x H D D x S S : q - v b 4 D J D T | c n.4X6Xu.<.,.F K.U.L v B R = z = z b z v [ D H  .S x v - : D ",
"= S D D B v T S S T # # : # S H D D h @X8X8X7XN.5.&.../.{.{.c.F D b { # # : = m H D H H R O.D # : A ",
"m H D D m w V T R J D : { z A D D s 4X8X7X7X5XQ.$.< l.[.[.{.{.z.D | D R = { b b D D H D H H J = H  .",
"[ H B B x - T [ D H o.= S 4 : S D R.6X7X5X,X2X@X, 2 A.[.[.[.[.c.! D D { : A z - m H H D D D m = D H ",
"H R [ - # v R D D D J # 4 4 T [ A ,X+X$X&X-X-X:X9.8.U.[.[._.{.v.g.D D H : : 4 D { S D D J J = # D D ",
"H D T : = w D D H D D = = T T T [ 3XoX#X$X$X&X-X-X[._._._.^.!.k.g.H D D - # D T T { m J [ J  .x x H ",
"D H H ; # w S H D D D # R J H D C ,XoX-XoX[.P.h.+.` ' k.A.C.z.g.g.) H H # S H H H J S m S | H D - D ",
"m m H S # w S D B m : 4 { D D n.M.W.g.g.7.h.}.$X&X#X%X.Xc.8.6.' ) S.n.4 #  .H H H H v m | H D m = w ",
"R B J [ { H w w ; - # ; H D h 6Xj.{.oX>X<X@X<XT.1X%XZ.XX).#X&XOX(.7.,X# # H H H H H v 4 R H D D v - ",
"S x D H H J 4 - v 4 # ; D H Q 7Xh.m.(.j.}.Z @X0 @X|.% ).C I.6.A.' ! 5Xs # H H H H H v 4 V D D D B v ",
"V x J D D H w A { { 4 ; D H l .X@.' M.` R.M '.0 |.}.% E.h S.P k./ K oX& = H D D H V 4 m H H H D m x ",
"V x D D D H w B D J  .; D H B |.6.+.n...P.C ).g '.'.% /.h S.K l.( K (.| ; D D D H w = 4 D H H D x 4 ",
"4 # m J S b - S D D R S x S V ] ' J.U.( S.M ).g ).'.% U.g J.K I.m.) k H T c S V m 4 4 4 V H S z 4 o.",
"x # b R D ; # S D D D D = m | | d ] L.A.].Z /.g U.).* Y.g ~.Z.h.k D D H T # v [  . . . .[ 4 4 # v H ",
"H ;  .[ | m # m H D H S = A H D H @.C.h.XXx._.f P./.* ^.g.^.6._ f H H D D = v T D D D D [ v # T T D ",
"S x H D H [ x - m H D H S m H D D H m.).8.^. X_ Y.^.L [.L.L g.l - v H D D T x D H D H D T B m T H D ",
"V x H H D R D # 4 H D B { D D D D D H k J.x.z. X_.^.^.k./ / M T # : H D B R T D D D D H D : x H D H ",
"B S H H D D R ; - m b : D 4 A H H D V & '.` M K ~.!._ 0 +.@.D T w = x B - D x b D H D S w w : S D D ",
"{ | m D D H S ; # - - m A 4 4 m T b : G.@Xt.y B.^ ` ).I b.5Xf D w # - ; z S w - m T B ; - J [ H B B ",
"J H x x S S w B 4 = S {  .J ; v  .x - ~ l.e U 2 ]./.` p P #Xl z v z # x { X.T w - o.m # D T T R | H ",
"D A : ; w 4 v [ m x { D H J [ m H 4 ; S d * +XW O 8.v.P e t.> w R S ; X.H D T R m D x # B D D D D v ",
"x m R J z = m D m b H H H H J { B : ; ~ @ @ ' '.t G i.0.w.e.Y w T S w T D D D T o.V w # B H D D D x ",
"= m J J | A z D z x D D H D H B ; # ; G.n.* c 9.w *.s.=X9X=XD.q.A b q D D D H D J : = # A H D D D m ",
"- x H H D J 4 z ; w D D D D S w 4 # ; l L.h 8 . q.e.$X,X@X&X&Xa.8 : 4 S H D H D v ; = = B D D H S - ",
"D x H D D D x = x B B H H D x S | m # v I E  X> p s.#XF.f.D.%Xp.r : D x H D D b m { D = z D D S w J ",
"m x D H D b J S 4 w ; b B z S T H [ T x g B.n f G r.XXF.0.D.oXp.r - v - x A v z { D J { x v B : : J ",
"- B D D m v J S m D # = ; # S D H H H [ o.Q s ( # 0.]./.Y.~.].e.0 z [ # = = = m D H H H {  .A # - m ",
"z H D D m x S H { J B ;  .w V D S H H H J H ) ;XP t 0.b.I.y.w.u S { J D # | b b D D D D D H R = D o.",
" .D m A v - D { J D  .; S w w S H H H H H m #.R.Z.C E p *.U 8 B | J D { : S x - S D H D D D m - T D ",
"D { [ : = 4  .D D D J # z w m D V H H J V - K.;X/.' ( X.$ $ = T D D D J - z w z D S D D D H - # D D ",
"D D [ : = v D D D D D # # S [ [ T m | [ T | P V.I i 8 R 4 = w H D D D D - # V [ [ [ m { | H  .: B D ",
"D D D - = w S D J D D # D R D D | m V S X.j <X*X].O.d H : = : V D H D D - B R D D { S m S { H S - D ",
"B B S b # 4 D D A B w : | D D H H w V [ H P q.>.:.9.l.S B = : S D S B x = X.H D D H b m [ J D A = x ",
"T B { { T S x v : ; # : H H D D D w B | H - . . X P K.P [ [ D x v 4 : # # T H D D D x z { H H S z # ",
"D v H H T J 4 - : - = ; D D D H D w w H D H A   o q N H H J R x = 4 : # # D D D H H x : D D H D B z ",
"A x D D D D w b  .[ - ; H D D D D : S H D D D x D J - H D D D x w o.[ : # H H D D H w m H D H D b z ",
"S x H D D H 4 S D J { ; H D H S x # m D H D D w m H : D D H D x m D H | - D H H D x # x D D D D v w ",
"z = A D D B - S H D { m b D S z # # - H H S x x J v # m D H A : m D H T D x D V b # # # V D D v w [ ",
"4 # v H S : = A H D D J - b J o.o.o. .D x 4 = x | x = w H S w = m H D H [ = v D o.o.o.o.T v w = w [ ",
"R #  . .o.x # m H H H V # D J D J J H  .= # D J D { # [ X.X.B = v H D D D = B R D D H H [ z # V [ D "
};
