/* XPM */
static char *_cec5b54e55a4b94a8aade0b55e2ffc9TNndn6xUF2F2fWlW[] = {
/* columns rows colors chars-per-pixel */
"50 50 213 2 ",
"   c #1F241E",
".  c #312513",
"X  c #172B29",
"o  c #1C3036",
"O  c #222F2E",
"+  c #2B312A",
"@  c #27302D",
"#  c #34332F",
"$  c #3A3D2F",
"%  c #263C36",
"&  c #363531",
"*  c #383733",
"=  c #373934",
"-  c #3B3A35",
";  c #3E3D39",
":  c #561919",
">  c #641C1B",
",  c #422F15",
"<  c #403F3A",
"1  c #4A3532",
"2  c #583733",
"3  c #7D292B",
"4  c #643533",
"5  c #3D422F",
"6  c #39423F",
"7  c #43423D",
"8  c #4D4D39",
"9  c #524A39",
"0  c #575438",
"q  c #535233",
"w  c #645A3C",
"e  c #62552A",
"r  c #313F40",
"t  c #2B4344",
"y  c #3A4D48",
"u  c #3B514F",
"i  c #464641",
"p  c #484742",
"a  c #464B45",
"s  c #4C4A45",
"d  c #4F4D48",
"f  c #414B4A",
"g  c #514E49",
"h  c #5D4744",
"j  c #4D514C",
"k  c #45554D",
"l  c #555545",
"z  c #54524D",
"x  c #58554F",
"c  c #5D5D4E",
"v  c #4A5855",
"b  c #555551",
"n  c #595650",
"m  c #575952",
"M  c #5E5C55",
"N  c #5B5E5A",
"B  c #565E5B",
"V  c #6F4440",
"C  c #605D56",
"Z  c #625F58",
"A  c #725B58",
"S  c #6C5E45",
"D  c #4B6458",
"F  c #586559",
"G  c #6A6849",
"H  c #7A6E41",
"J  c #65625B",
"K  c #69665E",
"L  c #656C58",
"P  c #776F50",
"I  c #717153",
"U  c #7B7757",
"Y  c #6C7252",
"T  c #4D6361",
"R  c #4D6962",
"E  c #5C6664",
"W  c #5F6F6D",
"Q  c #576A64",
"!  c #59746F",
"~  c #5C7973",
"^  c #6A6760",
"/  c #6B6861",
"(  c #6D6A63",
")  c #6F6C65",
"_  c #6D6A63",
"`  c #656A67",
"'  c #716E67",
"]  c #716E66",
"[  c #726F68",
"{  c #63756E",
"}  c #69786C",
"|  c #727067",
" . c #75726B",
".. c #79766E",
"X. c #626F71",
"o. c #687A76",
"O. c #747979",
"+. c #767C73",
"@. c #982C2D",
"#. c #A22021",
"$. c #C5383D",
"%. c #893F42",
"&. c #835954",
"*. c #985453",
"=. c #AC4C4B",
"-. c #B24C4E",
";. c #867648",
":. c #877852",
">. c #BB635A",
",. c #BB6964",
"<. c #DF4A4E",
"1. c #C84F50",
"2. c #D85553",
"3. c #FC5955",
"4. c #F45C5A",
"5. c #FD5959",
"6. c #FA5757",
"7. c #EB5E57",
"8. c #F3655F",
"9. c #EE6562",
"0. c #F06460",
"q. c #6B817B",
"w. c #65857A",
"e. c #748375",
"r. c #67806D",
"t. c #8E8357",
"y. c #978955",
"u. c #9D864C",
"i. c #A48947",
"p. c #848866",
"a. c #928F67",
"s. c #828875",
"d. c #8C9778",
"f. c #969670",
"g. c #AB9760",
"h. c #C6A265",
"j. c #6B8D85",
"k. c #6B8984",
"l. c #708983",
"z. c #7B8A86",
"x. c #778988",
"c. c #689184",
"v. c #6E948A",
"b. c #79938E",
"n. c #769389",
"m. c #789690",
"M. c #79A192",
"N. c #828B89",
"B. c #9E908D",
"V. c #8C9C98",
"C. c #869792",
"Z. c #909D93",
"A. c #89A39A",
"S. c #83A79A",
"D. c #99A49B",
"F. c #929FA5",
"G. c #8BAEA4",
"H. c #87A1A0",
"J. c #9AABA8",
"K. c #8DB2A8",
"L. c #92B5AC",
"P. c #9BB3AB",
"I. c #97B3A8",
"U. c #96BCB2",
"Y. c #9ABDB3",
"T. c #9AB6B1",
"R. c #A4ACAD",
"E. c #A7B8B7",
"W. c #B1BABB",
"Q. c #C3B9AE",
"!. c #9EC0AF",
"~. c #9CC1B5",
"^. c #A4C5BB",
"/. c #ABC6BE",
"(. c #A5C8BE",
"). c #A9C9BE",
"_. c #A0C5B7",
"`. c #B0C1BD",
"'. c #ACCAC2",
"]. c #A9C9C1",
"[. c #B5C9C6",
"{. c #ABD3C5",
"}. c #B5DCCE",
"|. c #B8DACE",
" X c #B2D6CB",
".X c #B5DCD1",
"XX c #BADCD2",
"oX c #BEE0D5",
"OX c #C9CECC",
"+X c #C5CBCA",
"@X c #CBDBDA",
"#X c #C7D7D5",
"$X c #D4D6D7",
"%X c #D4D6DA",
"&X c #D1D6CE",
"*X c #C4E3DC",
"=X c #CCE3DB",
"-X c #CAE6D9",
";X c #D2E7DE",
":X c #DBDEE1",
">X c #CBE9E4",
",X c #D4EBE4",
"<X c #D9EAE6",
"1X c #DBEAEA",
"2X c #D3E7E6",
"3X c #DAF0EB",
"4X c #E2E4E6",
"5X c #E4F4ED",
"6X c #E3ECF0",
"7X c #EBFAF4",
"8X c #EFFBF9",
"9X c #EBF7F6",
"0X c #F1FAF9",
/* pixels */
"n p M M M ) s & s C C C J x C M M C M M p M M M C M - M M C K x # 7 C M C ^ d C C M M M C g g C C C ",
"n p M C C J C # < C M g J g n M M M C b & g M M M C - M C M C K & * C M g Z x n C M M C n < p C C M ",
"x M M M M M J ; # s s - M 7 z M M M z - s 7 b M M x C M M C M J i # i d & C p d M M M x 7 p < b M C ",
"| ^ x n M M n * & & * n x - - d / s * < ^ ] Z l d ) K n n M M n ; # & & z b < * d J x & - Z ] J d d ",
"C C 7 p x z 7 N 7 * J K ] ^ i p ( 7 - J C C K | p M C s 7 x x 7 M p & M ^ ] ^ g # ) d # C Z C J ] M ",
"x z 7 7 ; - d J z s ^ M M Z ^ n C 7 - n M M A ,.,.>.4 < 7 ; 6 7 K n < _ M M Z ^ n M p # g C M M M p ",
"7 x K K z * g C g s M M M C M ^ z - - n M M &.9.6.6.%.( ^ n - 8 C n i M C M M M  .z ; # x M M C M s ",
"# s C J K M 7 x 7 p C C M M M x * # - M C M 2 8.6.6.4 C Z ^ Z i n p < M C M M M C * # # x M M M C s ",
"< p C C M C 7 7 ; i M M M C n < i & - n M C 1 0.3.4.2 M M M Z s < ; i g C C C M p 7 * & b C M M x * ",
"Z p M C M M g * i g d M M n 7 J _ ^ * i M C 1 0.3.4.2 M C M M x - < n i M C M p M ] ( - < n C g ; ] ",
"s p M M M p n n - 7 * p d < M J M Z ] s 7 E K 7.3.7.1 v d M d g J * i & i g i p ^ M C ] M 7 d * - M ",
"# n M C z s J x n Z # # ; # b M M C i V.2X9XB.2.5.4.m ~.H.E ; Z M g _ # & * & g M M M M ^ ..M # ; x ",
"g C C M d 7 x J / J M - ) i z M C B +X0X0X8XQ.2.5.<.F ^.'.].q.s M _ Z ^ # ] d d M M C M M C Z & Z ] ",
") C z z 7 * J K M M  .* n < ; x b @X0X0X7X5XOX2.5.-.E ].'.'.].l.J C M ^ ; b i * g C C M M M g & C M ",
"M J ) * * s K C M M C # 7 7 J K z.7X9X9X5X<X+X1.5.@.q.'.'.].].^.v C M C ; ; < M _ n M M Z Z & # M C ",
"M C J - # 7 M C C M C # & J J J `.@X@X=X>X,X&X=.4.@.x.].].].~.E.X.M C M * # n ^ J ( g Z ( Z [ p p M ",
"M C M * # 7 M M C M n & J Z M x /.#X*X*X-X>X-X-.4.> M./.^.^.^.E.X.j N M * M J C C ^ n d n ] C M * M ",
"z g M M & < x M x g < ; ) M d X.E.XX|.oX*X>X=X*.4.: A.^.^.^.~.~.o.v j 7 # [ M M M C s d ( C C g & 7 ",
"J x J K ^ M 7 i - & & - N M O.1XE..X|.oXXX*X-X*.<.2 S.^.~.~.~.!.q.@Xv # # C C C C C p < K C C M s * ",
"x p M C C Z < & s ; # - C i 6X<XI..X}.}.XXXXoX*.$.V S.Y.~.!.U.!.q.2XW.# # M M M C C p 7 x C C n g s ",
"b p C C M C 7 x ) _ < - M ` 0X<XA.}.}.}.}.}.}.&.#.h G.~.U.U.U.U.q.2X1X- # M C C C n < d C C M C g p ",
"x p M M M M 7 b M C [ - C ` =X^.S.}.}.}.}.}.|.A @.z G.~.U.U.U.U.w.].@Xj - M C C n 7 & 7 n C C C p 7 ",
"< # g C n d * x C M J M p a XX!.b.]..XoX}.}.}.J 3 B K.U.U.U.U.M.! Y.F.M J 7 b n x < < < x n n p <  .",
"p # d K M ; # n M M C n # d j.U.n.U. X}.}.}..Xn.M ~ L.U.U.U.K.c.! T.Q C Z # j ^ [ [ [ [ ( 7 < & s Z ",
"C -  .K ] d # d C M C n & x p q.n.L.(.}.}.}.oXS.w.c.U.Y.U.~.m.v.T B n M E F.W.C M M M M K d # J Z C ",
"x s C M C K p - g C M C n d C n ! L.L.{.}.}.oX'.U.K.Y.Y.Y.M.c.v.r s C C R.%XW.C C M C C C z d J M C ",
"x p C M M K M # < C M z ) M M d q m.I.U.{..X X.X~.U.U.~.G.j.v.T @ < C ' $X4XF.n M M C M M < p C M M ",
"x x M C M C J - & g d ; M < x I ;.D { L.L.'.|.XX{.U.U.M.c.j.v b 7 & s F.$X:Xs g M C C n 7 7 - x C M ",
") ) z M M M n - # * * l z ; 7 y.L ~ u o.o.A.P. X^.L.m.w.y f M n < # 7 OX:XN.7 ; l J b - * Z ) M z z ",
"C C 7 s M x < z 7 & M K | J * u.r.R C.3X1XA.{ Q ~ D F I.=XB M p d i x.$X+X_ J < & | g & M J C ) ] C ",
"M x ; - 7 < s ^ z 7 ( M M J K y.c % k } p.r.! m.K.q.:.e.;XV.7 7 ( N OX4XO.C Z _ g M p & z M M C M s ",
"7 x J J i & g C d d C M M C F G ;.% o 5 :.q.@X3X/.T.L a z.E * p C C.%XW.g M M C  .x < # z M M M M p ",
"# g Z J _ n p M i p M M M M C d P ;.w G H Z.>X=X(.L.k.X X 7 J 7 F +X$XM C M M M J - & # x M M M M g ",
"* p C C M Z 7 7 ; 7 M M C M n 7 & 8 w S G k z./.L.v.v m.l.D z p e.&XR.g M M C M s - & & x M M C n * ",
"M s M M M M p & p g x M M M p x ] x & d M ; 9 L   ` v P.;Xp.q + U Q.b i M M M g g _ Z # i M M n 7 Z ",
"g p M M M d Z n ; i * d b i n J Z J J N y { ( . . . . s F h.p.Y.5 - i & s x s 7 ^ C Z _ p s z ; ; Z ",
"& x M M x p Z n g M & * * & n C M M C t % q.X.@ $ o.P.z M 9 I.-X+.x J # # * # z C M M C ^  .x & * g ",
"7 M M M g i n Z _ Z g - [ < b C C M C z.Q T # ]  .6 u t M C + Q a K J n # ] d d M M C C M Z J # M  .",
"] M g x s & M ) Z C [ * M < < M C M b e.-Xo.- C C K 6 t f x H q ( J c ) ; n p - x M C M C n z & Z C ",
"C ) ^ - & 7 ) M C M Z # i < g M x O.D.w g.e # C M M O t E * G c J M M C ; 7 7 7 M x C C N Z & & M C ",
"C M K - # s M C M M C # # M K ^ F I.=XD.a.L & c C N b.>XN.* 7 C M M M M - # z ) K J x K ] C ] - g M ",
"M M M - # 7 x M M C M # M J M M K I d._.}.Y.z 6 M M 0 a.t.e.O.n C M M M - x J C M ) n g n ] M M - M ",
"x z M s # 7 M C b z 7 < ] C M C C 7 0 U f. .s $ s x 0 i.t.,X,XJ M x x i # ] C M C C d g ^ J M x & p ",
"J z K ) J x p s < - # - C M M M M 7 s l l c x - & J } _.)._.s.l s 7 ; # # C M M M M p 7 ) C M n p # ",
"n s C M C J < * 6 ; # - M M M C M 7 7 C C M M p M J M d.d.P q 7 & < - & # M M C M C p - x M M C z i ",
"n p M C M C 7 s ] J * - M C M M M ; M M M M M i M C 6 8 q d M p 7 | ) ; & M M M M C 7 z C C M M d p ",
"n p M C C M < x C C ( - M M C n 7 & g M M C M 7 g M - M M C M p g M M ) * C C C c p # p M M C M s 7 ",
"p & x M C z - x C C K z d M M 7 # # - C C n p p J s # z M M n ; g M C J M p M n d & # # x M M s ; ^ ",
"; & s Z b ; # x C M M Z * s Z .... . .M i 7 & 7 ) p # 7 M n 7 # g C M C ^ & s M  . .....J i 7 & 7 ^ ",
"J #  .[  .p # z M M C x # C J C M M C ) # # M J M ( # ) | | z & s C M M C # z K M M M M ) i # z ^ M "
};
