/* XPM */
static char *_3f6f5ce00a24017d4d3134b33fab1e1SaCjxyajk6pskQwk[] = {
/* columns rows colors chars-per-pixel */
"50 50 122 2 ",
"   c #0B151F",
".  c #0C1620",
"X  c #0F1922",
"o  c #121C25",
"O  c #151E29",
"+  c #172227",
"@  c #172129",
"#  c #1B242E",
"$  c #1D282E",
"%  c #1C2631",
"&  c #1F2931",
"*  c #232D34",
"=  c #242D3A",
"-  c #263136",
";  c #293437",
":  c #27313A",
">  c #2B353C",
",  c #2E393D",
"<  c #313B3F",
"1  c #2D3642",
"2  c #2F3945",
"3  c #353F46",
"4  c #353F45",
"5  c #323B44",
"6  c #333C48",
"7  c #343E49",
"8  c #373F49",
"9  c #343E4A",
"0  c #374145",
"q  c #374146",
"w  c #374147",
"e  c #384147",
"r  c #384247",
"t  c #36404B",
"y  c #374148",
"u  c #384248",
"i  c #394248",
"p  c #394249",
"a  c #384349",
"s  c #394349",
"d  c #3A4349",
"f  c #39424A",
"g  c #3A434A",
"h  c #3B434B",
"j  c #394449",
"k  c #3B4449",
"l  c #3B444A",
"z  c #3A454A",
"x  c #3A444B",
"c  c #3B444B",
"v  c #3A454B",
"b  c #3B434C",
"n  c #3B434D",
"m  c #38414F",
"M  c #3A434E",
"N  c #3C434C",
"B  c #3B444C",
"V  c #3D454E",
"C  c #3E464F",
"Z  c #3B444B",
"A  c #3E4650",
"S  c #3C4553",
"D  c #3D4553",
"F  c #3C4652",
"G  c #3C4653",
"H  c #3D4653",
"J  c #3C4554",
"K  c #3E4750",
"L  c #3F4851",
"P  c #3F4852",
"I  c #3F4851",
"U  c #404951",
"Y  c #404852",
"T  c #404952",
"R  c #414953",
"E  c #424B55",
"W  c #404956",
"Q  c #434D56",
"!  c #434C57",
"~  c #444C56",
"^  c #444C57",
"/  c #434B55",
"(  c #454E58",
")  c #464E59",
"_  c #444D5A",
"`  c #454D5A",
"'  c #454E5A",
"]  c #454E5B",
"[  c #464E5A",
"{  c #464F5A",
"}  c #464F5C",
"|  c #47505B",
" . c #47505E",
".. c #48505B",
"X. c #48515B",
"o. c #48505C",
"O. c #48515C",
"+. c #48515F",
"@. c #4A515F",
"#. c #48525F",
"$. c #49525F",
"%. c #4A525E",
"&. c #4B535F",
"*. c #49525F",
"=. c #4B5361",
"-. c #4D5561",
";. c #4C5562",
":. c #4F5864",
">. c #515965",
",. c #525965",
"<. c #515A65",
"1. c #505966",
"2. c #515967",
"3. c #515A66",
"4. c #515A67",
"5. c #525A66",
"6. c #535B67",
"7. c #525B68",
"8. c #535C69",
"9. c #555C69",
"0. c #545D6A",
"q. c #565E6B",
/* pixels */
"@ >.>.>.>.>.>.>.>.>.9.O.+ 5 < < < < < < < < < < < + [ >.>.>.>.>.>.>.>.>.q.= > < < 5 < < < < < < < < ",
"o B c b c c c c c B H [ # V c V N l V l c c l l 5 + 5 c l V c c c c c V &.= 5 c l l l l c c c c c 0 ",
"O c c c c c c c c B B _ # l l l c c N c c c c l r + 5 V c c c c B c p c O.= 4 N l l l l c c c c c c ",
"o B c c c c b c B b B _ # N V p c c c c c c c N 0 @ 5 l c c c c B B B c O.= 4 p V l l V c c c c c c ",
"o r p r p p p p p p p _ % B c B c c N N p l N l 0 + 5 p p p p p p p p c  .= 5 B l l b b b b b b c c ",
"  $ $ $ $ $ $ $ $ $ $ : o * * * * * = = * * = * * o o $ $ $ $ $ $ $ $ $ : @ & * = * * * = * * * * * ",
"* * * * * o = H H H H H J J H F D O + * * * * * * * * * * * $ o m S S H J J L S H H 1 o * * * * * * ",
"p p p r 0 $ 1 L L L H L L H L L O.6 > 8 p p p p p p p p r y < $ L L L L L L L L H ! O.@ p p p p p p ",
"l V l l r $ > c c c c c l l V c ` 2 > b c c c c c c V c c c < # c c c c c c c c B b =.% c c c c c c ",
"l l V l c $ > B c c c c l l c c ` 2 > b c c c c c c l l c c 5 # c c c c c c c z B b O.% c c c c c c ",
"l p c c p $ > l c c c c z l c c / 2 > p c c B c c l V l c c 5 $ c c c c c c c z B c =.@ c c c c c V ",
"4 4 5 5 5 # $ > > > > > > > > > 8 % * 4 5 5 4 5 5 5 5 5 5 5 ; o ; > > > > > > > > > y O 5 5 4 5 5 5 ",
"  O @ @ @ @ + + @ @ + X   & = = = = = = = = = = = o X + + @ @ + + @ @ @ o   @ = = = = = = = = = = = ",
"X > 4 4 0 5 5 0 0 0 0 - # | O.O.o.O.O.O.O.O.O.O.0.: $ 5 0 0 0 5 0 0 5 0 5 O b X.| X.O.O.|  .O.O.O.-.",
"o < c c c c c c c c c > # c c c c c N p c c c c | = ; c c c p l c c l l 0 @ 4 c c c c c c c B B c H ",
"o < B c c c c c c c c > # B c c c c V l c c c c ! = > c c c c c c V l l 5 @ 5 c c c c c c c c p c p ",
"o , B c c B c c c c c > # c B B c c c c b b B B ! = ; c c c c c p B B B 5 + 5 B B B c c B B B b B B ",
"  > 5 y 0 0 5 8 0 0 5 : + 5 4 4 4 4 4 4 4 4 4 4 L = $ 2 0 0 0 5 4 4 4 4 < @ > 0 0 5 0 0 y 5 4 0 4 4 ",
"  o + @ @ @ @ @ + @ @ o . @ @ @ @ + @ @ @ @ @ @ % o . @ @ @ + @ @ @ @ @ o . o @ @ @ @ @ @ @ @ @ @ @ ",
"<.<.:.4.:.1 1 >.7.:.:.7.>.>.7.>.q.% 1 >.7.7.7.>.>.7.4.:.:.7.:.O =.7.7.>.>.7.>.>.>.7.S O 4.7.7.:.>.7.",
"c c c B p $ > B p c c c c c c c [ 2 > b b b c c c c c c B c 5 # c c c c c c c c B V  .# B c c c B c ",
"c c c c p $ > b B B c c c c c c [ 2 > b c c c c c c c c B B < # c V c c c c c c B B =.# c c c c B c ",
"c c c c p & > c c c c c c c B c ! 2 > b c c c c c c c c c c 5 # l l c c c c c c B B O.# c c c c c c ",
"B c c c p $ : c c c c c c c c c ! > 1 p c c c c c c c c c c 5 + p c c c c c V l c B } % c c c c c c ",
"> > > > > o   = > > > > > > > > *   o > > > > > > > > > > > # . & > > > > > > > > > o . * > > > > > ",
"o S S H S S H H S S J 8 o * * * * * * * * * * * - o 7 J J J S J S H J S S % $ * * * * * * * * * * * ",
"O ! H K L L L L L K  . .% y y p p p p p p p c 0 , + y L L L L L L L K / >.= 5 p p p p p p p p p p 5 ",
"o B c c p c c c c c c _ % b b B c B c c c V c c 0 + 5 c c b c c c c c c  .= 5 c l l c V p p c c B c ",
"o c c c l c c c c c c _ # c c c c c c B c c c c 0 @ 5 c c c c c c c c c O.= 5 B V c c c B c c c c c ",
"@ c c c V c c c c c c [ % c c c c c c c c c c c 0 @ 5 c c c c c c c c c O.= 5 B c c c c c c c c c c ",
"X , < < < < < 5 5 < 5 _ # b B B B B B B B B B B 0 @ * < 5 , 5 < 5 5 < 5 ~ = 5 V B B c B c B B c c c ",
"@ @ @ @ @ X o = = = * = = = = = =   X @ @ @ @ @ @ @ @ @ + + o   * * = = = = = = = = @   @ @ @ @ @ + ",
"5 0 0 5 5 # 2 | X.X.O.O.O.O.O.O.7.1 * 4 4 4 4 4 4 4 4 4 0 < > $ [  .|  . .| O.O.O.-. .@ 0 5 0 0 4 4 ",
"c c c c 0 $ > c c c c c c c c c W 2 > N b b c c c c B B c c < $ c c c c c c c c c B O.# c c B B c c ",
"c c c c c $ > c c c c c c c c c ` 5 > B b c c c c c c c c c < # c c c c c c c c c B O.% c c c c c c ",
"c c c c y $ > c c c c c c c c c W 6 > p B c c c c c c c c c 5 # c c c c c c c B c B =.# c c c c c B ",
"c c c c c $ - 0 4 0 5 0 0 4 4 4 L 1 : b B p c c c c c c c c , + 0 5 0 0 5 0 0 5 0 5 _ @ B y B B V B ",
"# # # $ # X X + @ + + @ @ @ @ @ # . X % # % # # # # # # # # $   + @ + + @ @ @ @ @ @ @ . # % % # @ % ",
"  - > > > > > > > > > & @ W _ _ _ _ _ _ _ _ [ _ =.& @ > > > > ; > > > > - X 7 _ _ _ _ _ _ _ _ _ _ } ",
"o , z c c c z z c c p > % B p B B B B B B B B c -.= > y c c c c c c c c 0 @ 5 B B B B B c c B b B T ",
"o 0 l l c c l l c c c > $ c c c c c c c c c V c ! = > c c c B B V l l l 4 @ 4 l B B c c c c c c B B ",
"o 5 l l c c V p c c c > $ p c c V p c c B c l l ! : ; z c B B B l l l l 5 @ 5 p B B c c c B c B b b ",
"  , r r p p p p c c 0 ; # r 0 p p p p p p p p r ! = - < p p p p p p r r 5 + 5 p p p p 0 0 c p p b p ",
"  $ * * * * * * * * * # X * * * * * * * * * * * > # X * * * * * * * - * & o # * * * * - * * * * * * ",
"2 5 5 2 1 % % 2 6 5 2 5 2 5 2 6 5 o % 5 2 6 2 5 2 2 6 2 5 2 5 X 1 5 2 2 5 2 2 5 2 2 * X 5 2 2 6 5 2 ",
"V K T J H * 1 ! H L H K K L L H =.2 1 H J P P L L L L J T L y % T L T J L L H T H ! =.% L L L J L L ",
"c c l V p $ > c p B c c c c c c [ 2 > c V p c c c c B B c c < # c V N l c c c c B B  .# c c B B c c ",
"c c c c p $ > c c B c c c c c c / 2 > c c V c c c c c c B c < # c l p V c c c c B B =.# c c c B c c ",
"b c c c p # > p B c c c c c c c ~ 5 1 b p B B c c B c c c c 5 # c c l l V c c c c B O.% b p B c c c ",
"B B B B p $ + p b V B B B B c c b o & b B B B B B B B B B B > . 2 c l p c B B c c b > O 5 b B V B B "
};
